<svg width="200" height="272" viewBox="0 0 200 272" fill="none" xmlns="http://www.w3.org/2000/svg">
<rect width="200" height="272" rx="8" fill="#F8F5FF"/>
<path d="M88.9583 197.646H170.05C174.988 197.646 179.034 193.6 179.034 188.662L179.143 26.1516C179.143 21.2139 175.097 17.168 170.159 17.168H89.067C84.1293 17.168 80.0834 21.2139 80.0834 26.1516L79.9746 188.662C79.9746 193.6 84.0205 197.646 88.9583 197.646Z" fill="white"/>
<path d="M170.05 197.863H88.958C86.5 197.863 84.1943 196.906 82.4541 195.166C80.7139 193.425 79.7568 191.12 79.7568 188.662L79.8656 26.1514C79.8656 21.0831 83.9985 16.9502 89.0668 16.9502H170.159C172.617 16.9502 174.923 17.9073 176.663 19.6475C178.403 21.3876 179.36 23.6934 179.36 26.1514L179.251 188.662C179.251 193.73 175.14 197.863 170.05 197.863ZM89.0885 17.3852C84.2595 17.3852 80.3224 21.3224 80.3224 26.1514L80.2136 188.662C80.2136 190.989 81.1272 193.186 82.7804 194.861C84.4336 196.514 86.6305 197.428 88.958 197.428H170.05C174.879 197.428 178.816 193.491 178.816 188.662L178.925 26.1514C178.925 23.8239 178.011 21.6269 176.358 19.952C174.705 18.2988 172.508 17.3852 170.181 17.3852H89.0885Z" fill="black"/>
<path d="M167.375 192.141H91.6558C89.7851 192.141 88.0232 191.401 86.6963 190.075C85.3695 188.748 84.6299 186.986 84.6299 185.115L84.7386 29.2173C84.7386 25.3455 87.8927 22.1914 91.7646 22.1914H167.484C169.355 22.1914 171.116 22.931 172.443 24.2579C173.77 25.5847 174.51 27.3467 174.51 29.2173L174.401 185.115C174.401 188.987 171.247 192.141 167.375 192.141ZM91.7646 22.6047C88.132 22.6047 85.1737 25.563 85.1737 29.1956L85.0649 185.093C85.0649 186.855 85.7392 188.508 87.0009 189.748C88.2407 190.988 89.8939 191.684 91.6558 191.684H167.375C171.008 191.684 173.966 188.726 173.966 185.093L174.075 29.1956C174.075 27.4337 173.4 25.7805 172.139 24.5406C170.877 23.3008 169.246 22.6047 167.484 22.6047H91.7646Z" fill="black"/>
<path d="M138.925 27.7173H119.239C119.108 27.7173 119.021 27.6303 119.021 27.4997C119.021 27.3692 119.108 27.2822 119.239 27.2822H138.925C139.055 27.2822 139.142 27.3692 139.142 27.4997C139.142 27.6303 139.033 27.7173 138.925 27.7173Z" fill="black"/>
<path d="M167.463 85.3584H134.291C134.16 85.3584 134.073 85.2714 134.073 85.1409C134.073 85.0103 134.16 84.9233 134.291 84.9233H167.463C167.593 84.9233 167.68 85.0103 167.68 85.1409C167.68 85.2496 167.572 85.3584 167.463 85.3584Z" fill="black"/>
<path d="M167.439 89.4912H134.267C134.137 89.4912 134.05 89.4042 134.05 89.2737C134.05 89.1432 134.137 89.0562 134.267 89.0562H167.439C167.57 89.0562 167.657 89.1432 167.657 89.2737C167.657 89.4042 167.57 89.4912 167.439 89.4912Z" fill="black"/>
<path d="M149.385 93.6455H134.267C134.137 93.6455 134.05 93.5585 134.05 93.428C134.05 93.2975 134.137 93.2104 134.267 93.2104H149.385C149.516 93.2104 149.603 93.2975 149.603 93.428C149.603 93.5367 149.516 93.6455 149.385 93.6455Z" fill="black"/>
<path d="M149.387 77.7017H134.27V82.0956H149.387V77.7017Z" fill="#E5DFFE"/>
<path d="M129.526 77.7017H107.208V100.019H129.526V77.7017Z" fill="#E5DFFE"/>
<path d="M101.291 95.2753H91.5027C91.4374 95.2753 91.3939 95.2535 91.3504 95.21C91.3069 95.1665 91.2852 95.123 91.2852 95.0577V85.2693C91.2852 85.1388 91.3722 85.0518 91.5027 85.0518H100.747C100.878 85.0518 100.965 85.1388 100.965 85.2693C100.965 85.3998 100.878 85.4868 100.747 85.4868H91.7202V94.8402H101.074V87.9013C101.074 87.7708 101.161 87.6838 101.291 87.6838C101.422 87.6838 101.509 87.7708 101.509 87.9013V95.0577C101.509 95.1883 101.422 95.2753 101.291 95.2753Z" fill="#E5DFFE"/>
<path d="M96.3968 93.6004C96.3315 93.6004 96.2663 93.5569 96.2228 93.5134L92.3944 88.1407C92.3291 88.0537 92.3509 87.9014 92.4379 87.8361C92.5467 87.7709 92.6772 87.7926 92.7424 87.8796L96.3968 93.0131L102.922 83.9425C102.988 83.8555 103.118 83.812 103.227 83.899C103.314 83.9642 103.357 84.0948 103.27 84.2035L96.5708 93.5352C96.5273 93.5569 96.462 93.6004 96.3968 93.6004Z" fill="#988BF9"/>
<path d="M167.443 116.395H134.271C134.141 116.395 134.054 116.308 134.054 116.178C134.054 116.047 134.141 115.96 134.271 115.96H167.443C167.574 115.96 167.661 116.047 167.661 116.178C167.661 116.287 167.552 116.395 167.443 116.395Z" fill="black"/>
<path d="M167.419 120.528H134.247C134.116 120.528 134.029 120.441 134.029 120.31C134.029 120.18 134.116 120.093 134.247 120.093H167.419C167.549 120.093 167.636 120.18 167.636 120.31C167.636 120.441 167.549 120.528 167.419 120.528Z" fill="black"/>
<path d="M149.365 124.661H134.247C134.116 124.661 134.029 124.574 134.029 124.443C134.029 124.313 134.116 124.226 134.247 124.226H149.365C149.495 124.226 149.582 124.313 149.582 124.443C149.582 124.574 149.495 124.661 149.365 124.661Z" fill="black"/>
<path d="M149.367 108.717H134.249V113.111H149.367V108.717Z" fill="#E5DFFE"/>
<path d="M129.504 108.717H107.187V131.035H129.504V108.717Z" fill="#E5DFFE"/>
<path d="M101.272 124.38H91.4831C91.4179 124.38 91.3744 124.358 91.3309 124.315C91.2874 124.271 91.2656 124.227 91.2656 124.162V114.374C91.2656 114.243 91.3526 114.156 91.4831 114.156H100.728C100.858 114.156 100.945 114.243 100.945 114.374C100.945 114.504 100.858 114.591 100.728 114.591H91.7007V123.945H101.054V117.006C101.054 116.875 101.141 116.788 101.272 116.788C101.402 116.788 101.489 116.875 101.489 117.006V124.162C101.489 124.293 101.402 124.38 101.272 124.38Z" fill="#E5DFFE"/>
<path d="M96.3773 122.704C96.312 122.704 96.2467 122.66 96.2032 122.617L92.3749 117.244C92.3096 117.157 92.3313 117.005 92.4184 116.94C92.5271 116.874 92.6576 116.896 92.7229 116.983L96.3773 122.117L102.903 113.046C102.968 112.959 103.099 112.915 103.207 113.003C103.294 113.068 103.338 113.198 103.251 113.307L96.5513 122.639C96.5078 122.66 96.4425 122.704 96.3773 122.704Z" fill="#988BF9"/>
<path d="M167.42 147.566H134.248C134.117 147.566 134.03 147.479 134.03 147.349C134.03 147.218 134.117 147.131 134.248 147.131H167.42C167.55 147.131 167.637 147.218 167.637 147.349C167.637 147.479 167.529 147.566 167.42 147.566Z" fill="black"/>
<path d="M167.397 151.72H134.225C134.095 151.72 134.008 151.633 134.008 151.502C134.008 151.372 134.095 151.285 134.225 151.285H167.397C167.528 151.285 167.615 151.372 167.615 151.502C167.615 151.611 167.528 151.72 167.397 151.72Z" fill="black"/>
<path d="M149.343 155.854H134.225C134.095 155.854 134.008 155.766 134.008 155.636C134.008 155.505 134.095 155.418 134.225 155.418H149.343C149.474 155.418 149.561 155.505 149.561 155.636C149.561 155.766 149.474 155.854 149.343 155.854Z" fill="black"/>
<path d="M149.345 139.91H134.228V144.304H149.345V139.91Z" fill="#E5DFFE"/>
<path d="M129.483 139.91H107.165V162.227H129.483V139.91Z" fill="#E5DFFE"/>
<path d="M101.247 155.573H91.4587C91.3935 155.573 91.35 155.551 91.3065 155.507C91.2629 155.464 91.2412 155.42 91.2412 155.355V145.567C91.2412 145.436 91.3282 145.349 91.4587 145.349H100.703C100.834 145.349 100.921 145.436 100.921 145.567C100.921 145.697 100.834 145.784 100.703 145.784H91.6763V155.138H101.03V148.199C101.03 148.068 101.117 147.981 101.247 147.981C101.378 147.981 101.465 148.068 101.465 148.199V155.355C101.465 155.464 101.378 155.573 101.247 155.573Z" fill="#E5DFFE"/>
<path d="M96.3528 153.897C96.2876 153.897 96.2223 153.853 96.1788 153.81L92.3504 148.437C92.2852 148.35 92.3069 148.198 92.3939 148.133C92.5027 148.067 92.6332 148.089 92.6985 148.176L96.3528 153.31L102.878 144.239C102.944 144.152 103.074 144.108 103.183 144.195C103.27 144.261 103.314 144.391 103.227 144.5L96.5269 153.832C96.4833 153.853 96.4181 153.897 96.3528 153.897Z" fill="#988BF9"/>
<path d="M159.914 55.1482H144.992L159.631 34.7446H174.64L159.914 55.1482Z" fill="#968AF3"/>
<path d="M159.914 55.1487C159.914 58.8031 156.564 61.7614 152.453 61.7614C148.342 61.7614 144.992 58.8031 144.992 55.1487L152.453 54.4526L159.914 55.1487Z" fill="#968AF3"/>
<path d="M129.656 55.1482H114.734L129.374 34.7446H144.296L129.656 55.1482Z" fill="#837BE4"/>
<path d="M129.656 55.1487C129.656 58.8031 126.307 61.7614 122.195 61.7614C118.084 61.7614 114.734 58.8031 114.734 55.1487L122.195 54.4526L129.656 55.1487Z" fill="#837BE4"/>
<path d="M99.7022 55.1472H84.7803L99.7893 34.7437H114.885L99.7022 55.1472Z" fill="#968AF3"/>
<path d="M99.7022 55.1477C99.7022 58.8021 96.3524 61.7604 92.2413 61.7604C88.1301 61.7604 84.7803 58.8021 84.7803 55.1477L92.2413 54.4517L99.7022 55.1477Z" fill="#968AF3"/>
<path d="M129.373 34.744L114.668 55.1476H99.7461L114.842 34.744C114.82 34.744 128.916 34.7223 129.373 34.744Z" fill="white"/>
<path d="M107.251 62.5648H107.142C103.052 62.5648 99.7461 59.6282 99.7461 55.9739V55.9521V55.1255L114.668 55.082V55.9521C114.668 55.9739 114.668 55.9956 114.668 56.0174C114.625 59.65 111.318 62.5648 107.251 62.5648Z" fill="white"/>
<path d="M107.25 62.782H107.142C102.965 62.782 99.5283 59.7367 99.5283 55.9736V55.1253C99.5283 55.0165 99.6153 54.9078 99.7458 54.9078L114.668 54.8643C114.711 54.8643 114.777 54.886 114.82 54.9295C114.864 54.973 114.885 55.0165 114.885 55.0818V56.0171C114.842 59.7585 111.405 62.782 107.25 62.782ZM99.9416 55.3646V55.9954C99.9634 59.4975 103.183 62.3688 107.12 62.3688H107.229C111.166 62.3688 114.385 59.5192 114.429 56.0389V55.3428L99.9416 55.3646Z" fill="black"/>
<path d="M114.992 35.0923C114.861 35.0923 114.774 35.0053 114.774 34.8748C114.774 34.7443 114.861 34.6573 114.992 34.6573C117.211 34.6573 119.429 34.6573 121.692 34.6355C124.084 34.6355 126.521 34.6138 129.109 34.6138C129.24 34.6138 129.327 34.7008 129.327 34.8313C129.327 34.9618 129.24 35.0488 129.109 35.0488C126.521 35.0488 124.084 35.0488 121.692 35.0706C119.429 35.0923 117.211 35.0923 114.992 35.0923Z" fill="black"/>
<path d="M144.88 55.1482H129.719L144.162 34.7664L159.715 34.7446L144.88 55.1482Z" fill="white"/>
<path d="M144.798 55.1489C144.798 58.8033 141.448 61.7616 137.337 61.7616C133.226 61.7616 129.876 58.8033 129.876 55.1489H144.798Z" fill="white"/>
<path d="M137.335 61.9788C135.29 61.9788 133.354 61.261 131.918 59.9776C130.461 58.6943 129.656 56.9759 129.656 55.1487C129.656 55.0182 129.743 54.9312 129.874 54.9312H144.796C144.861 54.9312 144.904 54.9529 144.948 54.9964C144.992 55.0399 145.013 55.0834 145.013 55.1487C145.013 58.9118 141.576 61.9788 137.335 61.9788ZM130.091 55.3662C130.157 56.9976 130.896 58.4985 132.201 59.6731C133.572 60.8912 135.399 61.5656 137.335 61.5656C141.25 61.5656 144.448 58.803 144.578 55.3879H130.091V55.3662Z" fill="black"/>
<path d="M159.304 35.0918H144.382C144.251 35.0918 144.164 35.0048 144.164 34.8743C144.164 34.7437 144.251 34.6567 144.382 34.6567H159.304C159.434 34.6567 159.521 34.7437 159.521 34.8743C159.521 35.0048 159.434 35.0918 159.304 35.0918Z" fill="black"/>
<path d="M77.4957 62.566H77.3869C73.2975 62.566 69.9912 59.6295 69.9912 55.9751V55.9534V55.1268L74.7984 52.5601L84.9132 55.0833V55.9534C84.9132 55.9751 84.9132 55.9969 84.9132 56.0186C84.8697 59.6513 81.5634 62.566 77.4957 62.566Z" fill="white"/>
<path d="M77.4955 62.7833H77.3867C73.2103 62.7833 69.7734 59.738 69.7734 55.9749V55.1266C69.7734 55.0396 69.8169 54.9743 69.8822 54.9308L74.6894 52.364C74.7329 52.3423 74.7982 52.3423 74.8417 52.3423L84.9565 54.8655C85.0435 54.8873 85.1305 54.9743 85.1305 55.0831V56.0184C85.087 59.7598 81.6719 62.7833 77.4955 62.7833ZM70.2085 55.2788V55.9966C70.2302 59.4987 73.4496 62.37 77.3867 62.37H77.4955C81.4326 62.37 84.6519 59.5205 84.6954 56.0402V55.2788L74.8199 52.8208L70.2085 55.2788Z" fill="black"/>
<path d="M99.8124 34.7436L84.9122 55.1471H69.9902L85.1733 34.7436C85.1733 34.7436 99.3556 34.7218 99.8124 34.7436Z" fill="white"/>
<path d="M84.912 55.3651H69.99C69.903 55.3651 69.8377 55.3216 69.7942 55.2563C69.7507 55.191 69.7725 55.104 69.816 55.0388L84.7597 34.7223C84.8032 34.657 84.8685 34.6353 84.9337 34.6353C84.999 34.6353 90.5675 34.657 99.3989 34.657C99.5294 34.657 99.6164 34.744 99.6164 34.8745C99.6164 35.005 99.5294 35.0921 99.3989 35.0921C99.3554 35.0921 99.2901 35.0921 99.2249 35.0921C91.1766 35.0921 85.8691 35.0703 85.0425 35.0703L70.4033 54.9518H84.8902C85.0207 54.9518 85.1077 55.0388 85.1077 55.1693C85.1295 55.2563 85.0425 55.3651 84.912 55.3651Z" fill="black"/>
<path d="M159.913 55.3647H84.6941C84.5636 55.3647 84.4766 55.2777 84.4766 55.1472C84.4766 55.0167 84.5636 54.9297 84.6941 54.9297H159.913C160.044 54.9297 160.131 55.0167 160.131 55.1472C160.131 55.256 160.022 55.3647 159.913 55.3647Z" fill="#968AF3"/>
<path d="M14.0632 260.977H44.473C44.6087 260.977 44.6992 260.886 44.6992 260.751C44.6992 260.615 44.6087 260.524 44.473 260.524H14.0632C13.9274 260.524 13.8369 260.615 13.8369 260.751C13.8369 260.864 13.9274 260.977 14.0632 260.977Z" fill="black"/>
<path d="M48.4547 177.372C48.4547 177.372 25.9867 168.684 11.8 182.305C-2.38674 195.926 -3.2692 255.117 44.4724 260.751H115.429L48.4547 177.372Z" fill="white"/>
<path d="M44.4726 260.977H115.429C115.519 260.977 115.587 260.932 115.633 260.842C115.678 260.774 115.655 260.66 115.61 260.593L48.6359 177.214C48.6133 177.192 48.568 177.169 48.5454 177.147C48.5001 177.124 42.8209 174.952 35.4673 174.499C28.6794 174.069 19.0406 175.042 11.6418 182.147C7.70484 185.926 4.76341 193.143 3.60947 201.922C2.36501 211.312 3.29269 221.268 6.21149 230.002C8.97192 238.238 13.3388 245.026 19.1764 250.23C25.8964 256.18 34.3813 259.801 44.4274 261C44.45 260.977 44.4726 260.977 44.4726 260.977ZM114.976 260.525H44.4953C26.0096 258.33 12.5695 247.447 6.66402 229.843C0.351273 210.996 4.40139 189.749 11.9812 182.464C19.2443 175.495 28.7699 174.522 35.4673 174.952C42.3458 175.382 47.7535 177.328 48.3418 177.554L114.976 260.525Z" fill="black"/>
<path d="M22.7961 214.57C22.864 214.57 22.9319 214.548 22.9771 214.48C23.045 214.389 23.045 214.231 22.9319 214.163C19.4474 211.403 16.868 207.511 15.6688 203.212C15.6462 203.099 15.5104 203.031 15.3973 203.054C15.2841 203.076 15.2163 203.212 15.2389 203.325C16.4607 207.715 19.0854 211.674 22.6604 214.525C22.683 214.548 22.7282 214.57 22.7961 214.57Z" fill="black"/>
<path d="M37.5725 221.427C31.7575 219.866 26.7798 217.739 23.1822 214.662C23.1822 214.662 22.6391 190.067 32.7078 171.807C33.6355 170.11 34.9252 168.617 36.4412 167.418C39.903 164.725 46.9399 160.698 58.0268 160.924C58.0268 160.924 72.304 163.3 75.8337 169.5C79.4087 175.744 85.3594 193.303 85.3594 193.303L37.5725 221.427Z" fill="#968AF3"/>
<path d="M67.2809 193.619C67.3714 193.619 67.4619 193.551 67.5072 193.46L71.4442 179.839C71.4894 179.726 71.3989 179.59 71.2858 179.568C71.1726 179.522 71.0369 179.613 71.0143 179.726L67.0773 193.347C67.0321 193.46 67.1226 193.596 67.2357 193.619C67.2357 193.619 67.2583 193.619 67.2809 193.619Z" fill="black"/>
<path d="M30.0641 218.827C30.0641 218.827 35.5397 202.626 58.5281 202.445C73.1221 202.332 91.2458 202.536 102.514 202.717C109.075 202.807 115.003 206.608 117.854 212.537L137.381 253.241L144.101 258.513C145.051 259.26 144.508 260.753 143.332 260.753H104.301C103.012 260.753 101.744 260.414 100.636 259.78C95.2959 256.771 78.8239 246.793 63.5964 230.343C53.0525 223.42 42.2371 223.918 30.0641 218.827Z" fill="white"/>
<path d="M104.278 260.98H143.308C143.942 260.98 144.508 260.595 144.711 259.984C144.915 259.373 144.734 258.74 144.213 258.332L137.539 253.106L118.035 212.446C115.139 206.405 109.188 202.604 102.513 202.513C90.3175 202.332 72.7821 202.128 58.5275 202.242C58.3917 202.242 58.3012 202.355 58.3012 202.468C58.3012 202.604 58.4143 202.694 58.5275 202.694C72.7821 202.581 90.3175 202.785 102.513 202.966C109.029 203.056 114.822 206.767 117.65 212.65L137.154 253.332C137.177 253.355 137.199 253.4 137.222 253.422L143.942 258.694C144.372 259.034 144.395 259.509 144.281 259.848C144.168 260.188 143.851 260.55 143.308 260.55H104.278C103.034 260.55 101.812 260.233 100.726 259.622C95.9288 256.929 79.0948 246.816 63.7541 230.23C63.7315 230.208 63.7315 230.208 63.7089 230.185C57.4866 226.09 51.1965 224.574 44.5217 222.967C39.9059 221.859 35.1318 220.727 30.154 218.646C30.0408 218.6 29.9051 218.646 29.8599 218.759C29.8146 218.872 29.8599 219.008 29.973 219.053C34.9961 221.157 39.7928 222.289 44.4086 223.397C51.0155 224.981 57.2604 226.474 63.4147 230.525C78.8006 247.132 95.6799 257.269 100.477 259.984C101.653 260.64 102.943 260.98 104.278 260.98Z" fill="black"/>
<path d="M127.696 260.979H129.665C130.524 260.979 131.248 260.436 131.475 259.599C131.701 258.762 131.362 257.925 130.615 257.495L125.343 254.373L83.3258 213.826C77.6466 208.35 70.1573 205.251 62.2607 205.138L58.55 205.092C58.4368 205.092 58.3237 205.183 58.3237 205.319C58.3237 205.454 58.4142 205.545 58.55 205.545L62.2607 205.59C70.0442 205.703 77.4204 208.735 83.0317 214.143L125.071 254.689C125.094 254.712 125.094 254.712 125.117 254.712L130.411 257.857C131.09 258.264 131.181 258.966 131.067 259.463C130.932 259.939 130.502 260.504 129.687 260.504H127.719C127.583 260.504 127.493 260.595 127.493 260.731C127.47 260.866 127.56 260.979 127.696 260.979Z" fill="black"/>
<path d="M97.0829 227.199C97.1056 227.199 97.1282 227.199 97.1508 227.176C97.264 227.131 97.3319 227.018 97.2866 226.882L92.9423 213.849C92.8971 213.736 92.784 213.668 92.6482 213.713C92.5351 213.759 92.4672 213.872 92.5124 214.008L96.8567 227.04C96.9019 227.153 96.9924 227.199 97.0829 227.199Z" fill="black"/>
<path d="M62.7821 229.756C62.8499 229.756 62.8952 229.733 62.9404 229.688C63.0309 229.597 63.0083 229.461 62.9178 229.371C59.999 226.701 57.3517 223.714 54.9986 220.547C54.9307 220.456 54.7723 220.434 54.6818 220.501C54.5913 220.569 54.5687 220.728 54.6366 220.818C56.9897 224.031 59.6822 227.018 62.6236 229.71C62.6689 229.756 62.7142 229.756 62.7821 229.756Z" fill="black"/>
<path d="M94.3902 256.251L125.207 254.757C125.343 254.757 125.434 254.644 125.434 254.531C125.434 254.395 125.32 254.305 125.207 254.305L94.4128 255.798C94.2771 255.798 94.1866 255.911 94.1866 256.024C94.1639 256.16 94.2771 256.251 94.3902 256.251Z" fill="black"/>
<path d="M124.349 253.468H137.359C137.494 253.468 137.585 253.378 137.585 253.242C137.585 253.106 137.494 253.016 137.359 253.016H124.349C124.213 253.016 124.122 253.106 124.122 253.242C124.122 253.355 124.235 253.468 124.349 253.468Z" fill="black"/>
<path d="M50.4503 174.544L58.0527 193.188C58.0527 193.188 82.3534 193.528 84.6613 197.397C86.9466 201.266 83.2585 202.804 83.2585 202.804C83.2585 202.804 55.2244 206.968 47.441 204.071C39.6575 201.153 34.838 183.64 33.7746 177.101C32.7112 170.539 50.4503 174.544 50.4503 174.544Z" fill="#968AF3"/>
<path d="M47.4414 204.299C47.5319 204.299 47.6224 204.253 47.645 204.163C47.6903 204.05 47.6224 203.914 47.5093 203.869C41.3549 201.561 37.3048 189.84 35.8341 184.908C35.7888 184.795 35.6757 184.727 35.5625 184.749C35.4494 184.795 35.3815 184.908 35.4042 185.021C37.2369 191.221 41.2417 201.991 47.3508 204.276C47.3961 204.276 47.4188 204.299 47.4414 204.299Z" fill="black"/>
<path d="M84.6612 197.623C84.7065 197.623 84.7291 197.623 84.7744 197.6C84.8875 197.533 84.9101 197.397 84.8649 197.284C82.6022 193.46 60.451 193.007 58.211 192.962L51.4457 176.399C51.4005 176.286 51.2647 176.218 51.1516 176.286C51.0385 176.332 50.9706 176.467 51.0385 176.58L57.849 193.256C57.8943 193.347 57.9621 193.392 58.0526 193.392C58.3015 193.392 82.2628 193.777 84.4576 197.487C84.5028 197.578 84.5707 197.623 84.6612 197.623Z" fill="black"/>
<path d="M103.238 206.04H58.1212C56.9899 206.04 56.0849 205.134 56.0849 204.003C56.0849 202.872 56.9899 201.967 58.1212 201.967H106.723L103.238 206.04Z" fill="black"/>
<path d="M103.238 206.04L70.1814 205.452L81.9923 177.938C82.4222 176.942 83.4178 176.286 84.5039 176.286H115.049C116.588 176.286 117.651 177.87 117.041 179.295L106.565 203.958C105.999 205.293 104.664 206.108 103.238 206.04Z" fill="black"/>
<path d="M101.065 185.404C101.065 185.97 100.613 186.445 100.025 186.445C99.4589 186.445 98.9838 185.992 98.9838 185.404C98.9838 184.838 99.4363 184.363 100.025 184.363C100.613 184.363 101.065 184.816 101.065 185.404Z" fill="#968AF3"/>
<path d="M59.9297 164.952C59.9976 164.952 60.0655 164.929 60.1108 164.862C60.3597 164.545 60.7217 164.137 61.1063 163.685C61.6946 162.984 62.3734 162.214 62.8033 161.671C62.8712 161.581 62.8712 161.422 62.758 161.354C62.6675 161.287 62.5092 161.287 62.4413 161.4C62.0114 161.92 61.3552 162.712 60.7669 163.391C60.3823 163.843 60.0202 164.273 59.7487 164.567C59.6582 164.658 59.6809 164.816 59.7714 164.884C59.8392 164.929 59.8845 164.952 59.9297 164.952Z" fill="black"/>
<path d="M57.8249 154.069L54.4989 159.002C54.0463 159.681 53.3902 160.224 52.6209 160.54L50.4261 161.468C50.4261 161.468 54.6799 171.016 62.056 169.229C62.056 169.229 66.8529 167.758 62.305 161.875L63.7983 159.952L57.8249 154.069Z" fill="white"/>
<path d="M50.4484 161.694C50.471 161.694 50.5163 161.694 50.5389 161.671L52.7336 160.744C53.5482 160.404 54.227 159.839 54.7021 159.115L58.0282 154.182C58.0961 154.069 58.0735 153.933 57.9603 153.865C57.8472 153.797 57.7114 153.82 57.6435 153.933L54.3175 158.866C53.8876 159.522 53.2766 160.02 52.5526 160.336L50.3579 161.264C50.2447 161.309 50.1995 161.445 50.2447 161.558C50.2674 161.649 50.3579 161.694 50.4484 161.694Z" fill="black"/>
<path d="M60.8347 163.911C60.9026 163.911 60.9705 163.888 61.0157 163.82L64.0024 160.087C64.0703 159.996 64.0703 159.86 63.9798 159.793L58.0064 153.91C57.9159 153.819 57.7802 153.819 57.6897 153.91C57.5992 154 57.5992 154.136 57.6897 154.226L63.5272 159.974L60.6537 163.549C60.5858 163.639 60.5858 163.797 60.6989 163.865C60.7216 163.888 60.7668 163.911 60.8347 163.911Z" fill="black"/>
<path d="M57.5537 141.76C58.4813 141.941 59.228 142.416 59.7258 143.163C59.9747 142.031 60.7214 141.036 61.6943 140.38C62.6446 139.724 63.7985 139.384 64.9525 139.248C67.4866 138.954 70.1792 139.746 71.9893 141.534C73.7994 143.321 74.6366 146.127 73.8446 148.548C73.0527 150.969 70.5638 152.802 68.0297 152.598C68.3238 154.001 68.5274 155.449 68.3012 156.852C68.0749 158.255 67.3735 159.657 66.1743 160.427C64.8167 161.309 63.0066 161.264 61.5133 160.653C60.0199 160.042 58.7981 158.911 57.712 157.712C57.0785 157.01 56.5128 156.263 55.9019 155.539C55.5852 155.177 55.291 154.793 54.9516 154.453C54.7254 154.227 54.4539 154.069 54.2955 153.797C53.3904 152.349 52.7569 151.331 53.0057 148.525C53.1189 147.507 54.5444 141.172 57.5537 141.76Z" fill="black"/>
<path d="M66.1061 147.031C66.1061 147.031 67.441 150.651 67.8031 153.276C67.8936 153.909 67.5768 154.543 67.0111 154.859C66.1061 155.38 64.4317 155.968 61.7618 155.651C57.3497 155.131 57.3044 151.805 57.0781 150.493C56.8066 148.863 57.5533 147.596 60.1553 148.253C63.8208 149.18 66.1061 147.031 66.1061 147.031Z" fill="white"/>
<path d="M63.2101 155.991C65.0881 155.991 66.3325 155.516 67.1245 155.064C67.7806 154.702 68.12 153.978 68.0295 153.254C67.6675 150.629 66.3325 146.986 66.3325 146.963C66.3099 146.896 66.242 146.85 66.1742 146.828C66.1063 146.805 66.0158 146.828 65.9705 146.873C65.9479 146.896 63.7079 148.932 60.2234 148.05C58.9337 147.733 57.9834 147.823 57.3951 148.366C56.8973 148.841 56.6937 149.588 56.8747 150.538C56.8973 150.652 56.92 150.765 56.92 150.9C57.1236 152.349 57.5309 155.38 61.7394 155.878C62.2598 155.946 62.7576 155.991 63.2101 155.991ZM66.0157 147.416C66.3325 148.344 67.3055 151.172 67.577 153.321C67.6449 153.865 67.396 154.408 66.8982 154.679C65.9931 155.199 64.364 155.765 61.7846 155.448C57.9155 154.996 57.5535 152.303 57.3499 150.855C57.3273 150.719 57.3046 150.584 57.3046 150.471C57.2141 149.905 57.2141 149.158 57.6893 148.706C58.1418 148.276 58.979 148.208 60.1103 148.479C63.1649 149.249 65.2917 147.959 66.0157 147.416Z" fill="black"/>
<path d="M57.0098 155.291C57.0098 155.291 56.331 153.978 55.8784 152.621C55.8784 152.621 53.118 151.173 52.6881 153.39C52.2582 155.607 55.6069 157.485 57.0098 155.291Z" fill="white"/>
<path d="M55.2911 156.49C55.9698 156.49 56.6939 156.196 57.1916 155.404C57.2369 155.336 57.2369 155.245 57.1916 155.177C57.1916 155.155 56.5129 153.865 56.0603 152.53C56.0377 152.485 55.9924 152.417 55.9472 152.394C55.8793 152.349 54.3407 151.58 53.2999 152.078C52.8474 152.304 52.5532 152.711 52.4401 153.322C52.1912 154.68 53.1642 155.834 54.2729 156.264C54.5896 156.422 54.9517 156.49 55.2911 156.49ZM56.7391 155.268C56.2187 156.015 55.3589 156.241 54.4539 155.879C53.5488 155.517 52.689 154.544 52.8926 153.435C52.9831 152.96 53.1868 152.666 53.5036 152.508C54.1598 152.191 55.2232 152.553 55.6757 152.779C56.0603 153.888 56.5807 154.929 56.7391 155.268Z" fill="black"/>
<path d="M55.9925 155.02C56.0604 155.02 56.1056 154.997 56.1509 154.952C56.2414 154.861 56.2414 154.725 56.1509 154.635C55.6078 154.115 54.8159 153.866 54.0693 154.001C53.9561 154.024 53.8656 154.137 53.8882 154.25C53.9109 154.363 54.024 154.454 54.1371 154.431C54.748 154.341 55.3815 154.544 55.8341 154.952C55.8793 154.997 55.9472 155.02 55.9925 155.02Z" fill="black"/>
</svg>
