<svg width="200" height="272" viewBox="0 0 200 272" fill="none" xmlns="http://www.w3.org/2000/svg">
<rect width="200" height="272" rx="8" fill="#F8F5FF"/>
<path d="M178.084 117.237V119.038C178.084 121.754 175.878 123.945 173.162 123.945H28.5564C25.8405 123.945 23.6348 121.739 23.6348 119.038V117.237H178.084Z" fill="white"/>
<path d="M173.161 124.095H28.5561C25.7651 124.095 23.4844 121.83 23.4844 119.039V117.238C23.4844 117.148 23.5444 117.088 23.6344 117.088C23.7245 117.088 23.7845 117.148 23.7845 117.238V119.039C23.7845 121.664 25.9152 123.795 28.5561 123.795H173.161C175.787 123.795 177.933 121.664 177.933 119.039V117.238C177.933 117.148 177.993 117.088 178.083 117.088C178.173 117.088 178.233 117.148 178.233 117.238V119.039C178.233 121.83 175.952 124.095 173.161 124.095Z" fill="black"/>
<path d="M178.083 117.236H23.6494V30.8514C23.6494 27.7003 26.2003 25.1494 29.3514 25.1494H172.381C175.532 25.1494 178.083 27.7003 178.083 30.8514V117.236Z" fill="white"/>
<path d="M178.084 117.387H23.6501C23.56 117.387 23.5 117.327 23.5 117.237V30.852C23.5 27.6259 26.1259 25 29.352 25H172.382C175.608 25 178.234 27.6259 178.234 30.852V117.237C178.234 117.312 178.159 117.387 178.084 117.387ZM23.8001 117.087H177.934V30.852C177.934 27.791 175.443 25.3001 172.382 25.3001H29.352C26.291 25.3001 23.8001 27.791 23.8001 30.852V117.087Z" fill="black"/>
<path d="M172.802 112.105H154.66C154.57 112.105 154.51 112.045 154.51 111.955C154.51 111.865 154.57 111.805 154.66 111.805H172.652V30.9869C172.652 30.7618 172.457 30.5667 172.232 30.5667H29.4869C29.2618 30.5667 29.0667 30.7618 29.0667 30.9869V111.805H54.7707C54.8607 111.805 54.9207 111.865 54.9207 111.955C54.9207 112.045 54.8607 112.105 54.7707 112.105H28.9167C28.8266 112.105 28.7666 112.045 28.7666 111.955V30.9869C28.7666 30.5967 29.0967 30.2666 29.4869 30.2666H172.232C172.622 30.2666 172.952 30.5967 172.952 30.9869V111.955C172.952 112.045 172.892 112.105 172.802 112.105Z" fill="black"/>
<path d="M124.215 138.874H77.5036C74.8327 138.874 72.6719 136.713 72.6719 134.042V123.959H129.047V134.027C129.047 136.698 126.886 138.874 124.215 138.874Z" fill="white"/>
<path d="M124.215 139.025H77.5042C74.7583 139.025 72.5225 136.789 72.5225 134.043V123.96C72.5225 123.87 72.5825 123.81 72.6725 123.81H129.047C129.137 123.81 129.197 123.87 129.197 123.96V134.028C129.197 136.789 126.961 139.025 124.215 139.025ZM72.8226 124.095V134.028C72.8226 136.609 74.9233 138.71 77.5042 138.71H124.215C126.796 138.71 128.897 136.609 128.897 134.028V124.095H72.8226Z" fill="black"/>
<path d="M126.946 127.605H74.7731C74.6831 127.605 74.623 127.545 74.623 127.455C74.623 127.365 74.6831 127.305 74.7731 127.305H126.946C127.036 127.305 127.096 127.365 127.096 127.455C127.096 127.545 127.036 127.605 126.946 127.605Z" fill="black"/>
<path d="M81.9631 47.2239H67.6481C67.5581 47.2239 67.498 47.1639 67.498 47.0739C67.498 46.9838 67.5581 46.9238 67.6481 46.9238H81.9631C82.0531 46.9238 82.1132 46.9838 82.1132 47.0739C82.1132 47.1489 82.0531 47.2239 81.9631 47.2239Z" fill="black"/>
<path d="M98.2738 50.5696H67.6481C67.5581 50.5696 67.498 50.5096 67.498 50.4196C67.498 50.3296 67.5581 50.2695 67.6481 50.2695H98.2738C98.3638 50.2695 98.4238 50.3296 98.4238 50.4196C98.4238 50.5096 98.3638 50.5696 98.2738 50.5696Z" fill="black"/>
<path d="M85.7894 53.9324H67.6481C67.5581 53.9324 67.498 53.8724 67.498 53.7824C67.498 53.6923 67.5581 53.6323 67.6481 53.6323H85.7894C85.8795 53.6323 85.9395 53.6923 85.9395 53.7824C85.9395 53.8574 85.8795 53.9324 85.7894 53.9324Z" fill="black"/>
<path d="M85.7908 41.042H67.6494V44.5982H85.7908V41.042Z" fill="#E5DFFE"/>
<path d="M63.8065 41.042H45.7402V59.1083H63.8065V41.042Z" fill="#E5DFFE"/>
<path d="M42.0667 53.3764H36.4547C36.3647 53.3764 36.3047 53.3164 36.3047 53.2264V47.6144C36.3047 47.5244 36.3647 47.4644 36.4547 47.4644H41.7366C41.8266 47.4644 41.8866 47.5244 41.8866 47.6144C41.8866 47.7044 41.8266 47.7645 41.7366 47.7645H36.6048V53.0763H41.9166V49.1299C41.9166 49.0399 41.9766 48.9799 42.0667 48.9799C42.1567 48.9799 42.2167 49.0399 42.2167 49.1299V53.2264C42.2167 53.3014 42.1567 53.3764 42.0667 53.3764Z" fill="black"/>
<path d="M39.2598 52.4158C39.2148 52.4158 39.1698 52.3858 39.1398 52.3558L36.949 49.2797C36.904 49.2197 36.919 49.1146 36.979 49.0696C37.0391 49.0246 37.1441 49.0396 37.1891 49.0996L39.2598 52.0107L42.9661 46.8489C43.0111 46.7888 43.1012 46.7588 43.1762 46.8188C43.2362 46.8639 43.2662 46.9539 43.2062 47.0289L39.3799 52.3558C39.3499 52.3858 39.3048 52.4158 39.2598 52.4158Z" fill="#988BF9"/>
<path d="M90.7885 93.2293H67.6354C67.5454 93.2293 67.4854 93.1693 67.4854 93.0793C67.4854 92.9892 67.5454 92.9292 67.6354 92.9292H90.7885C90.8785 92.9292 90.9385 92.9892 90.9385 93.0793C90.9385 93.1693 90.8785 93.2293 90.7885 93.2293Z" fill="black"/>
<path d="M94.7949 96.5901H67.6354C67.5454 96.5901 67.4854 96.5301 67.4854 96.4401C67.4854 96.3501 67.5454 96.29 67.6354 96.29H94.7949C94.8849 96.29 94.9449 96.3501 94.9449 96.4401C94.9449 96.5151 94.8849 96.5901 94.7949 96.5901Z" fill="black"/>
<path d="M90.7885 99.9368H67.6354C67.5454 99.9368 67.4854 99.8768 67.4854 99.7868C67.4854 99.6967 67.5454 99.6367 67.6354 99.6367H90.7885C90.8785 99.6367 90.9385 99.6967 90.9385 99.7868C90.9385 99.8768 90.8785 99.9368 90.7885 99.9368Z" fill="black"/>
<path d="M85.794 87.0615H67.6377V90.6178H85.794V87.0615Z" fill="#E5DFFE"/>
<path d="M63.8065 87.062H45.7402V105.128H63.8065V87.062Z" fill="#E5DFFE"/>
<path d="M42.0667 99.3964H36.4547C36.3647 99.3964 36.3047 99.3364 36.3047 99.2464V93.6344C36.3047 93.5444 36.3647 93.4844 36.4547 93.4844H42.0667C42.1117 93.4844 42.1417 93.4994 42.1717 93.5294C42.2018 93.5594 42.2167 93.5894 42.2167 93.6344L42.2017 99.2464C42.2168 99.3214 42.1567 99.3964 42.0667 99.3964ZM36.6048 99.0963H41.9166L41.9316 93.7845H36.6198V99.0963H36.6048Z" fill="#E4E2FF"/>
<path d="M90.7885 70.8421H67.6354C67.5454 70.8421 67.4854 70.7821 67.4854 70.692C67.4854 70.602 67.5454 70.542 67.6354 70.542H90.7885C90.8785 70.542 90.9385 70.602 90.9385 70.692C90.9385 70.7671 90.8785 70.8421 90.7885 70.8421Z" fill="black"/>
<path d="M98.2761 74.1878H67.6354C67.5454 74.1878 67.4854 74.1278 67.4854 74.0377C67.4854 73.9477 67.5454 73.8877 67.6354 73.8877H98.2761C98.3661 73.8877 98.4261 73.9477 98.4261 74.0377C98.4261 74.1278 98.3661 74.1878 98.2761 74.1878Z" fill="black"/>
<path d="M85.7917 77.5501H67.6354C67.5454 77.5501 67.4854 77.4901 67.4854 77.4001C67.4854 77.31 67.5454 77.25 67.6354 77.25H85.7917C85.8818 77.25 85.9418 77.31 85.9418 77.4001C85.9418 77.4751 85.8818 77.5501 85.7917 77.5501Z" fill="black"/>
<path d="M85.794 64.6602H67.6377V68.2164H85.794V64.6602Z" fill="#E5DFFE"/>
<path d="M63.8065 64.6602H45.7402V82.7264H63.8065V64.6602Z" fill="#E5DFFE"/>
<path d="M42.0667 76.9951H36.4547C36.3647 76.9951 36.3047 76.9351 36.3047 76.845V71.2331C36.3047 71.143 36.3647 71.083 36.4547 71.083H42.0667C42.1117 71.083 42.1417 71.098 42.1717 71.128C42.2018 71.158 42.2167 71.188 42.2167 71.2331L42.2017 76.845C42.2168 76.9351 42.1567 76.9951 42.0667 76.9951ZM36.6048 76.695H41.9166L41.9316 71.3831H36.6198V76.695H36.6048Z" fill="#E4E2FF"/>
<path d="M41.3882 83.161L39.1074 74.0679L47.0752 78.8395L43.3539 80.055L41.3882 83.161Z" fill="#968AF3"/>
<g clip-path="url(#clip0_2963_46032)">
<path d="M164.527 62.8232C164.527 62.8564 164.514 62.8882 164.491 62.9116C164.467 62.9351 164.435 62.9482 164.402 62.9482H163.9C163.901 62.9689 163.902 62.9896 163.902 63.0107C163.902 63.2593 163.803 63.4976 163.627 63.6733C163.452 63.8491 163.213 63.948 162.965 63.9482H162.726L163.861 64.9807C163.874 64.9917 163.884 65.005 163.891 65.0199C163.898 65.0348 163.902 65.051 163.903 65.0675C163.904 65.0841 163.902 65.1006 163.896 65.1162C163.891 65.1317 163.882 65.1461 163.871 65.1583C163.86 65.1706 163.846 65.1805 163.831 65.1875C163.816 65.1945 163.8 65.1985 163.784 65.1991C163.767 65.1998 163.751 65.1972 163.735 65.1915C163.72 65.1858 163.705 65.177 163.693 65.1657L162.318 63.9157C162.3 63.8988 162.287 63.8766 162.281 63.852C162.275 63.8274 162.277 63.8017 162.286 63.7782C162.295 63.7546 162.311 63.7344 162.332 63.7201C162.352 63.7059 162.377 63.6982 162.402 63.6982H162.965C163.147 63.698 163.322 63.6255 163.451 63.4966C163.58 63.3678 163.652 63.193 163.652 63.0107C163.652 62.9896 163.651 62.9689 163.649 62.9482H162.402C162.369 62.9482 162.337 62.9351 162.314 62.9116C162.291 62.8882 162.277 62.8564 162.277 62.8232C162.277 62.7901 162.291 62.7583 162.314 62.7349C162.337 62.7114 162.369 62.6982 162.402 62.6982H163.577C163.519 62.5854 163.432 62.4907 163.324 62.4245C163.216 62.3584 163.092 62.3233 162.965 62.3232H162.402C162.369 62.3232 162.337 62.3101 162.314 62.2866C162.291 62.2632 162.277 62.2314 162.277 62.1982C162.277 62.1651 162.291 62.1333 162.314 62.1099C162.337 62.0864 162.369 62.0732 162.402 62.0732H164.402C164.435 62.0732 164.467 62.0864 164.491 62.1099C164.514 62.1333 164.527 62.1651 164.527 62.1982C164.527 62.2314 164.514 62.2632 164.491 62.2866C164.467 62.3101 164.435 62.3232 164.402 62.3232H163.601C163.713 62.4264 163.798 62.5551 163.849 62.6982H164.402C164.435 62.6982 164.467 62.7114 164.491 62.7349C164.514 62.7583 164.527 62.7901 164.527 62.8232Z" fill="black"/>
</g>
<path d="M160.003 61.1475H149.004C148.449 61.1475 147.999 61.5976 147.999 62.1528V65.1689C147.999 65.7241 148.449 66.1742 149.004 66.1742H160.003C160.558 66.1742 161.009 65.7241 161.009 65.1689V62.1528C161.009 61.5976 160.558 61.1475 160.003 61.1475Z" fill="white"/>
<path d="M160.003 66.3249H149.004C148.359 66.3249 147.849 65.7997 147.849 65.1695V62.1535C147.849 61.5082 148.374 60.998 149.004 60.998H160.003C160.648 60.998 161.158 61.5232 161.158 62.1535V65.1695C161.158 65.7997 160.648 66.3249 160.003 66.3249ZM148.989 61.2982C148.509 61.2982 148.134 61.6883 148.134 62.1535V65.1695C148.134 65.6497 148.524 66.0248 148.989 66.0248H159.988C160.468 66.0248 160.843 65.6347 160.843 65.1695V62.1535C160.843 61.6733 160.453 61.2982 159.988 61.2982H148.989Z" fill="black"/>
<path d="M165.077 39.541H125.553V44.1176H165.077V39.541Z" fill="#968AF3"/>
<path d="M165.059 55.6858H125.94C125.85 55.6858 125.79 55.6258 125.79 55.5358C125.79 55.4458 125.85 55.3857 125.94 55.3857H165.059C165.149 55.3857 165.209 55.4458 165.209 55.5358C165.209 55.6108 165.149 55.6858 165.059 55.6858Z" fill="black"/>
<path d="M138.515 51.5599H125.94C125.85 51.5599 125.79 51.4998 125.79 51.4098C125.79 51.3198 125.85 51.2598 125.94 51.2598H138.515C138.605 51.2598 138.665 51.3198 138.665 51.4098C138.665 51.4848 138.605 51.5599 138.515 51.5599Z" fill="black"/>
<path d="M154.044 51.5599H141.92C141.83 51.5599 141.77 51.4998 141.77 51.4098C141.77 51.3198 141.83 51.2598 141.92 51.2598H154.044C154.134 51.2598 154.194 51.3198 154.194 51.4098C154.194 51.4848 154.134 51.5599 154.044 51.5599Z" fill="black"/>
<path d="M159.885 87.8113H152.233C151.662 87.8113 151.197 87.3461 151.197 86.7759V79.1232C151.197 78.553 151.662 78.0879 152.233 78.0879H159.885C160.455 78.0879 160.921 78.553 160.921 79.1232V86.7759C160.921 87.3461 160.455 87.8113 159.885 87.8113Z" fill="white"/>
<path d="M159.886 87.962H152.233C151.588 87.962 151.048 87.4368 151.048 86.7766V79.1239C151.048 78.4787 151.573 77.9385 152.233 77.9385H159.886C160.531 77.9385 161.071 78.4637 161.071 79.1239V86.7766C161.071 87.4368 160.531 87.962 159.886 87.962ZM152.233 78.2536C151.753 78.2536 151.348 78.6437 151.348 79.1389V86.7916C151.348 87.2717 151.738 87.6769 152.233 87.6769H159.886C160.366 87.6769 160.771 87.2867 160.771 86.7916V79.1389C160.771 78.6587 160.381 78.2536 159.886 78.2536H152.233Z" fill="black"/>
<path d="M158.151 81.4482C158.151 81.498 158.132 81.5457 158.096 81.5808C158.061 81.616 158.014 81.6357 157.964 81.6357H157.21C157.212 81.6667 157.214 81.6979 157.214 81.7295C157.213 82.1023 157.065 82.4598 156.802 82.7234C156.538 82.987 156.18 83.1353 155.808 83.1357H155.449L157.152 84.6845C157.171 84.701 157.186 84.7209 157.197 84.7433C157.208 84.7656 157.214 84.7899 157.215 84.8147C157.217 84.8395 157.213 84.8643 157.205 84.8876C157.196 84.911 157.183 84.9325 157.167 84.9509C157.15 84.9692 157.13 84.9841 157.107 84.9946C157.085 85.0051 157.061 85.0111 157.036 85.0121C157.011 85.0131 156.986 85.0092 156.963 85.0006C156.94 84.992 156.918 84.9789 156.9 84.962L154.838 83.087C154.81 83.0615 154.79 83.0282 154.781 82.9914C154.773 82.9545 154.775 82.9159 154.789 82.8806C154.803 82.8453 154.827 82.815 154.858 82.7936C154.889 82.7722 154.926 82.7607 154.964 82.7607H155.808C156.081 82.7604 156.343 82.6517 156.536 82.4584C156.73 82.265 156.839 82.0029 156.839 81.7295C156.839 81.6979 156.837 81.6667 156.834 81.6357H154.964C154.914 81.6357 154.866 81.616 154.831 81.5808C154.796 81.5457 154.776 81.498 154.776 81.4482C154.776 81.3985 154.796 81.3508 154.831 81.3157C154.866 81.2805 154.914 81.2607 154.964 81.2607H156.726C156.639 81.0915 156.508 80.9494 156.346 80.8502C156.184 80.7509 155.998 80.6983 155.808 80.6982H154.964C154.914 80.6982 154.866 80.6785 154.831 80.6433C154.796 80.6082 154.776 80.5605 154.776 80.5107C154.776 80.461 154.796 80.4133 154.831 80.3782C154.866 80.343 154.914 80.3232 154.964 80.3232H157.964C158.014 80.3232 158.061 80.343 158.096 80.3782C158.132 80.4133 158.151 80.461 158.151 80.5107C158.151 80.5605 158.132 80.6082 158.096 80.6433C158.061 80.6785 158.014 80.6982 157.964 80.6982H156.762C156.93 80.853 157.057 81.046 157.133 81.2607H157.964C158.014 81.2607 158.061 81.2805 158.096 81.3157C158.132 81.3508 158.151 81.3985 158.151 81.4482Z" fill="black"/>
<path d="M143.946 87.813H131.222C130.592 87.813 130.097 87.3028 130.097 86.6876V79.245C130.097 78.6148 130.607 78.1196 131.222 78.1196H143.946C144.577 78.1196 145.072 78.6298 145.072 79.245V86.6876C145.072 87.3028 144.577 87.813 143.946 87.813Z" fill="white"/>
<path d="M143.948 87.9637H131.224C130.518 87.9637 129.948 87.3935 129.948 86.6882V79.2457C129.948 78.5404 130.518 77.9702 131.224 77.9702H143.948C144.653 77.9702 145.224 78.5404 145.224 79.2457V86.6882C145.224 87.3935 144.653 87.9637 143.948 87.9637ZM131.224 78.2553C130.683 78.2553 130.248 78.6905 130.248 79.2306V86.6732C130.248 87.2134 130.683 87.6486 131.224 87.6486H143.948C144.488 87.6486 144.923 87.2134 144.923 86.6732V79.2306C144.923 78.6905 144.488 78.2553 143.948 78.2553H131.224Z" fill="black"/>
<path d="M143.215 81.2114H141.189C140.844 81.2114 140.559 81.5115 140.559 81.8867V82.952C140.559 83.3272 140.844 83.6273 141.189 83.6273H143.215C143.56 83.6273 143.845 83.3272 143.845 82.952V81.8867C143.845 81.5115 143.56 81.2114 143.215 81.2114Z" fill="white"/>
<path d="M143.212 83.778H141.187C140.751 83.778 140.406 83.4028 140.406 82.9527V81.8873C140.406 81.4221 140.751 81.062 141.187 81.062H143.212C143.647 81.062 143.993 81.4371 143.993 81.8873V82.9527C143.993 83.4178 143.632 83.778 143.212 83.778ZM141.187 81.3621C140.916 81.3621 140.706 81.6022 140.706 81.8873V82.9527C140.706 83.2528 140.916 83.4778 141.187 83.4778H143.212C143.482 83.4778 143.692 83.2378 143.692 82.9527V81.8873C143.692 81.5872 143.482 81.3621 143.212 81.3621H141.187Z" fill="black"/>
<path d="M133.908 85.0518H130.997V86.0121H133.908V85.0518Z" fill="#E4E2FF"/>
<path d="M137.327 85.0518H134.416V86.0121H137.327V85.0518Z" fill="#E4E2FF"/>
<path d="M140.75 85.0518H137.839V86.0121H140.75V85.0518Z" fill="#E4E2FF"/>
<path d="M144.155 85.0518H141.244V86.0121H144.155V85.0518Z" fill="#E4E2FF"/>
<path d="M137.341 76.1071C138.75 76.1071 139.892 74.9651 139.892 73.5563C139.892 72.1474 138.75 71.0054 137.341 71.0054C135.932 71.0054 134.79 72.1474 134.79 73.5563C134.79 74.9651 135.932 76.1071 137.341 76.1071Z" fill="white"/>
<path d="M137.342 76.2578C135.856 76.2578 134.641 75.0424 134.641 73.5569C134.641 72.0714 135.856 70.856 137.342 70.856C138.827 70.856 140.043 72.0714 140.043 73.5569C140.043 75.0424 138.827 76.2578 137.342 76.2578ZM137.342 71.1711C136.021 71.1711 134.941 72.2514 134.941 73.5719C134.941 74.8924 136.021 75.9727 137.342 75.9727C138.662 75.9727 139.742 74.8924 139.742 73.5719C139.742 72.2364 138.662 71.1711 137.342 71.1711Z" fill="black"/>
<path d="M156.041 76.1067C157.45 76.1067 158.592 74.9646 158.592 73.5558C158.592 72.147 157.45 71.0049 156.041 71.0049C154.632 71.0049 153.49 72.147 153.49 73.5558C153.49 74.9646 154.632 76.1067 156.041 76.1067Z" fill="white"/>
<path d="M156.042 76.2574C154.556 76.2574 153.341 75.0419 153.341 73.5564C153.341 72.0709 154.556 70.8555 156.042 70.8555C157.527 70.8555 158.743 72.0709 158.743 73.5564C158.743 75.0419 157.527 76.2574 156.042 76.2574ZM156.042 71.1706C154.721 71.1706 153.641 72.251 153.641 73.5714C153.641 74.8919 154.721 75.9722 156.042 75.9722C157.362 75.9722 158.443 74.8919 158.443 73.5714C158.443 72.2359 157.362 71.1706 156.042 71.1706Z" fill="black"/>
<path d="M159.523 93.6357H131.733C130.968 93.6357 130.353 94.251 130.353 95.0162V98.5124C130.353 99.2777 130.968 99.8929 131.733 99.8929H159.523C160.288 99.8929 160.903 99.2777 160.903 98.5124V95.0162C160.918 94.251 160.288 93.6357 159.523 93.6357Z" fill="#968AF3"/>
<path d="M145.074 61.373H125.942V65.9496H145.074V61.373Z" fill="#E5DFFE"/>
<path d="M34.001 192H12.001V267H34.001V192Z" fill="white"/>
<path d="M145.845 271H12.1566C12.0632 271 12.001 270.938 12.001 270.844V192.156C12.001 192.063 12.0632 192 12.1566 192H35.1511C35.2444 192 35.3067 192.063 35.3067 192.156C35.3067 192.25 35.2444 192.313 35.1511 192.313H12.3121V270.687H79.0788H145.845C145.939 270.687 146.001 270.75 146.001 270.844C146.001 270.922 145.923 271 145.845 271Z" fill="black"/>
<path d="M31.6151 173.749C31.96 173.374 32.305 172.969 32.4549 172.474C32.6049 171.98 32.4849 171.38 32.065 171.095C31.765 170.885 31.3601 170.885 31.0752 170.66C30.6853 170.36 30.6253 169.76 30.8203 169.295C31.0152 168.83 31.3751 168.47 31.7051 168.11C32.6199 167.136 33.4297 165.996 33.7896 164.706C34.1496 163.416 34.0296 161.932 33.2198 160.852C32.4249 159.772 30.8802 159.217 29.6505 159.757C28.7357 160.162 28.1358 161.032 27.5959 161.857C26.2162 163.941 24.8365 166.056 23.7867 168.32C22.7369 170.585 22.032 173.074 22.107 175.579C22.137 176.494 22.257 177.423 22.7069 178.218C23.1418 179.013 23.9366 179.673 24.8365 179.748C26.3062 179.883 26.8611 178.338 27.8059 177.513C29.1406 176.329 30.4153 175.069 31.6151 173.749Z" fill="white"/>
<path d="M25.0002 179.898C24.9402 179.898 24.8802 179.898 24.8052 179.883C23.9204 179.808 23.0506 179.193 22.5557 178.279C22.1658 177.574 21.9708 176.704 21.9408 175.564C21.8808 173.285 22.4507 170.825 23.6355 168.246C24.6853 165.951 26.095 163.821 27.4597 161.752C27.9696 160.987 28.5995 160.027 29.5743 159.592C30.834 159.052 32.4387 159.532 33.3235 160.732C34.1034 161.782 34.3133 163.267 33.9084 164.721C33.5785 165.876 32.8886 167.016 31.7788 168.186L31.6738 168.291C31.3739 168.606 31.074 168.935 30.909 169.325C30.759 169.715 30.774 170.24 31.119 170.51C31.2539 170.615 31.4189 170.66 31.5839 170.72C31.7638 170.78 31.9438 170.84 32.0938 170.945C32.6187 171.29 32.6936 171.995 32.5437 172.505C32.3937 173.015 32.0488 173.435 31.6738 173.839C30.4741 175.174 29.1844 176.449 27.8346 177.619C27.5647 177.859 27.3397 178.144 27.0848 178.459C26.5749 179.178 25.99 179.898 25.0002 179.898ZM30.6691 159.682C30.3391 159.682 30.0092 159.742 29.7092 159.877C28.8094 160.267 28.2095 161.182 27.7146 161.917C26.3649 163.971 24.9552 166.101 23.9204 168.366C22.7507 170.9 22.1958 173.315 22.2558 175.549C22.2858 176.644 22.4657 177.454 22.8256 178.129C23.2755 178.953 24.0554 179.508 24.8352 179.583C25.78 179.673 26.3349 178.983 26.9048 178.264C27.1448 177.949 27.3997 177.634 27.6847 177.379C29.0194 176.209 30.2941 174.949 31.4939 173.63C31.8388 173.24 32.1688 172.865 32.3037 172.415C32.4237 171.995 32.3487 171.455 31.9738 171.2C31.8538 171.11 31.6888 171.065 31.5389 171.02C31.3439 170.96 31.149 170.9 30.984 170.765C30.5191 170.405 30.4741 169.73 30.6691 169.235C30.849 168.8 31.179 168.441 31.4939 168.111L31.5989 168.006C32.6636 166.866 33.3385 165.771 33.6535 164.661C34.0434 163.297 33.8334 161.902 33.1136 160.927C32.5137 160.147 31.5689 159.682 30.6691 159.682Z" fill="black"/>
<path d="M15.5366 174.949C14.3519 173.134 14.2469 170.465 15.8066 168.965C16.4515 168.35 17.3962 167.78 17.2913 166.896C17.2463 166.551 17.0363 166.251 16.8114 165.996C16.0015 165.066 14.9068 164.421 14.0219 163.566C13.1221 162.711 12.4023 161.482 12.6872 160.282C12.9272 159.247 13.872 158.467 14.9218 158.242C15.9566 158.017 17.0663 158.257 18.0261 158.707C20.9205 160.057 22.7352 163.131 23.3351 166.266C23.9349 169.4 23.53 172.639 23.0501 175.804C22.9451 176.509 22.8252 177.244 22.4052 177.843C20.7556 180.243 16.5414 176.494 15.5366 174.949Z" fill="white"/>
<path d="M20.9222 178.773C20.9072 178.773 20.9072 178.773 20.8922 178.773C18.9126 178.743 16.2431 176.283 15.4183 175.024C14.2635 173.254 14.0536 170.449 15.7182 168.86C15.8532 168.74 16.0032 168.605 16.1381 168.485C16.678 168.02 17.2329 167.54 17.1579 166.925C17.1129 166.61 16.903 166.31 16.708 166.1C16.2431 165.575 15.6732 165.126 15.1183 164.691C14.7134 164.376 14.2935 164.046 13.9186 163.686C13.3787 163.176 12.1789 161.826 12.5389 160.267C12.7788 159.232 13.7086 158.362 14.8784 158.107C16.0931 157.837 17.2929 158.212 18.0728 158.587C20.7572 159.847 22.7818 162.711 23.4717 166.25C24.0865 169.4 23.6816 172.579 23.1867 175.848C23.0817 176.493 22.9618 177.303 22.5268 177.948C22.1369 178.488 21.597 178.773 20.9222 178.773ZM15.6582 174.859C16.4831 176.118 19.0925 178.458 20.8922 178.473C21.492 178.488 21.942 178.233 22.2869 177.753C22.6918 177.168 22.7968 176.433 22.9018 175.773C23.3967 172.534 23.7866 169.385 23.1867 166.28C22.5118 162.831 20.5622 160.042 17.9528 158.827C17.2029 158.482 16.0782 158.122 14.9384 158.377C13.8736 158.617 13.0338 159.382 12.8238 160.312C12.5089 161.721 13.6186 162.981 14.1135 163.461C14.4885 163.821 14.8934 164.136 15.2983 164.451C15.8682 164.886 16.4381 165.351 16.918 165.905C17.1279 166.145 17.3829 166.49 17.4279 166.88C17.5179 167.66 16.873 168.215 16.3031 168.71C16.1531 168.83 16.0182 168.95 15.8982 169.07C14.3685 170.569 14.5785 173.194 15.6582 174.859Z" fill="black"/>
<path d="M19.931 176.748C19.901 176.748 19.856 176.733 19.826 176.703C18.2363 175.248 18.2513 172.789 18.4163 171.454C18.4913 170.854 18.5963 170.254 18.7013 169.669C18.9112 168.47 19.1362 167.24 19.0312 166.025C18.8812 164.27 17.8014 162.381 16.0168 162.156C15.9418 162.141 15.8818 162.066 15.8818 161.991C15.8968 161.916 15.9718 161.856 16.0468 161.856C17.9814 162.111 19.1512 164.135 19.3161 165.995C19.4211 167.255 19.1962 168.5 18.9862 169.714C18.8812 170.284 18.7762 170.884 18.7162 171.469C18.5663 172.744 18.5363 175.098 20.036 176.463C20.096 176.523 20.096 176.613 20.051 176.673C20.021 176.733 19.976 176.748 19.931 176.748Z" fill="black"/>
<path d="M20.7434 170.014C21.1933 168.965 21.8832 167.96 21.8832 166.82C21.8832 165.17 20.4885 163.911 19.4987 162.591C17.729 160.206 17.1592 156.877 18.3889 154.178C19.6187 151.478 22.753 149.663 25.6474 150.308C26.6972 150.533 27.732 151.118 28.2269 152.063C28.7968 153.158 28.5419 154.492 28.1819 155.677C27.807 156.862 27.3271 158.062 27.4771 159.292C27.732 161.466 29.8616 163.026 30.3115 165.17C30.7764 167.405 29.3217 169.549 27.792 171.244C26.9372 172.204 26.0374 173.134 25.3325 174.213C24.5377 175.458 24.4327 176.568 24.1627 177.963C23.8628 179.447 22.873 179.627 21.8982 178.548C20.9684 177.543 20.4585 176.103 20.2185 174.768C19.9336 173.179 20.0986 171.499 20.7434 170.014Z" fill="white"/>
<path d="M23.0817 179.373C22.6617 179.373 22.2118 179.118 21.7769 178.638C20.6521 177.408 20.2172 175.699 20.0673 174.784C19.7823 173.119 19.9773 171.409 20.6222 169.94C20.7421 169.685 20.8621 169.415 20.9971 169.16C21.372 168.41 21.7619 167.615 21.7619 166.79C21.7619 165.546 20.9071 164.511 20.0823 163.506C19.8573 163.221 19.6174 162.936 19.4074 162.651C17.5178 160.102 17.0679 156.742 18.2826 154.088C19.5724 151.238 22.8417 149.499 25.7061 150.129C26.9509 150.399 27.9257 151.074 28.3906 151.958C29.0204 153.158 28.7055 154.583 28.3606 155.678C28.3006 155.843 28.2556 156.023 28.1956 156.187C27.8657 157.177 27.5358 158.212 27.6557 159.232C27.7907 160.342 28.4056 161.271 29.0654 162.246C29.6503 163.131 30.2652 164.046 30.4901 165.096C31 167.54 29.2754 169.805 27.9407 171.304C27.7907 171.469 27.6557 171.634 27.5058 171.784C26.8009 172.564 26.081 173.374 25.4962 174.259C24.8363 175.279 24.6713 176.208 24.4614 177.288C24.4164 177.498 24.3864 177.723 24.3414 177.948C24.1914 178.698 23.8465 179.178 23.3816 179.313C23.2616 179.373 23.1716 179.373 23.0817 179.373ZM20.8921 170.075C20.2772 171.484 20.0972 173.149 20.3672 174.754C20.5172 175.624 20.9371 177.273 22.0019 178.458C22.4518 178.953 22.9167 179.163 23.2766 179.073C23.6215 178.968 23.8915 178.578 24.0265 177.948C24.0714 177.723 24.1164 177.498 24.1464 177.288C24.3564 176.178 24.5364 175.219 25.2112 174.154C25.7961 173.239 26.5309 172.429 27.2508 171.649C27.4008 171.484 27.5357 171.319 27.6857 171.169C28.9755 169.715 30.6401 167.525 30.1602 165.216C29.9503 164.226 29.3654 163.326 28.7805 162.471C28.1356 161.496 27.4608 160.492 27.3258 159.322C27.1908 158.242 27.5358 157.177 27.8807 156.157C27.9407 155.993 27.9857 155.813 28.0456 155.648C28.3756 154.598 28.6755 153.248 28.1056 152.153C27.6857 151.343 26.7709 150.729 25.6311 150.474C22.8867 149.874 19.7823 151.538 18.5376 154.268C17.3828 156.832 17.8027 160.072 19.6324 162.531C19.8423 162.816 20.0823 163.101 20.3072 163.371C21.162 164.421 22.0469 165.501 22.0469 166.85C22.0469 167.75 21.6419 168.56 21.252 169.34C21.132 169.55 20.9971 169.82 20.8921 170.075Z" fill="black"/>
<path d="M23.1276 177.979C23.0826 177.979 23.0376 177.964 23.0076 177.934C21.8229 176.569 21.9429 174.544 22.4528 173.09C22.8127 172.07 23.3676 171.125 23.8925 170.225C24.1774 169.73 24.4773 169.22 24.7473 168.695C25.6621 166.911 25.9171 165.351 25.4971 164.046C25.2272 163.192 24.6723 162.502 24.1024 161.752C23.7275 161.272 23.3376 160.777 23.0376 160.237C21.8829 158.183 22.0628 155.423 23.4576 153.519C23.5025 153.459 23.6075 153.444 23.6675 153.489C23.7275 153.534 23.7425 153.639 23.6975 153.699C22.3628 155.498 22.1978 158.123 23.2926 160.087C23.5775 160.612 23.9674 161.092 24.3274 161.572C24.8973 162.307 25.4821 163.057 25.7671 163.956C26.217 165.336 25.962 166.971 25.0022 168.83C24.7323 169.355 24.4324 169.865 24.1324 170.375C23.6075 171.275 23.0676 172.205 22.7077 173.195C22.2278 174.559 22.1078 176.479 23.2026 177.739C23.2626 177.799 23.2476 177.889 23.1876 177.949C23.1876 177.964 23.1576 177.979 23.1276 177.979Z" fill="black"/>
<path d="M32.7708 177.484H14.5195L15.7493 191.446H31.5261L32.7708 177.484Z" fill="#E5DFFE"/>
<path d="M112.496 210.209L92.6475 209.79L95.7108 189.584H110.188L112.496 210.209Z" fill="white"/>
<path d="M112.496 210.419L92.6473 209.978C92.5844 209.978 92.5214 209.957 92.5004 209.894C92.4584 209.852 92.4374 209.789 92.4584 209.726L95.5218 189.521C95.5428 189.416 95.6267 189.332 95.7316 189.332H110.209C110.314 189.332 110.398 189.416 110.419 189.521L112.727 210.167C112.727 210.23 112.706 210.293 112.664 210.335C112.601 210.398 112.559 210.419 112.496 210.419ZM92.8991 209.58L112.265 209.999L109.999 189.773H95.8785L92.8991 209.58Z" fill="black"/>
<path d="M119.047 184.842C119.047 183.667 118.522 182.639 117.725 182.009C118.438 181.002 118.879 179.722 118.879 178.358C118.879 175.064 116.445 172.379 113.445 172.379C113.256 172.379 113.067 172.399 112.878 172.42C112.312 169.588 110.004 167.49 107.276 167.49C105.975 167.49 104.758 167.972 103.793 168.791C102.996 167.133 101.422 166 99.6177 166C97.3307 166 95.4213 167.804 94.9807 170.175C94.3932 169.987 93.7638 169.882 93.1133 169.882C89.5254 169.882 86.6299 173.071 86.6299 176.995C86.6299 178.694 87.1754 180.247 88.0777 181.485C87.9098 182.009 87.8049 182.576 87.8049 183.142C87.8049 184.947 88.7071 186.52 90.029 187.36C89.6303 188.031 89.3785 188.849 89.3785 189.731C89.3785 192.122 91.141 194.053 93.3021 194.053C93.3651 194.053 93.4071 194.053 93.47 194.053C93.4071 194.326 93.3651 194.598 93.3651 194.892C93.3651 196.801 94.7709 198.354 96.5124 198.354C97.1628 198.354 97.7713 198.123 98.2748 197.746C98.9043 198.627 99.8904 199.214 101.002 199.214C101.947 199.214 102.786 198.795 103.415 198.123C104.003 198.627 104.716 198.921 105.514 198.921C106.584 198.921 107.528 198.375 108.157 197.536C108.64 197.913 109.248 198.144 109.878 198.144C111.514 198.144 112.857 196.676 112.857 194.892C112.857 194.829 112.857 194.745 112.857 194.682C114.892 194.493 116.508 192.626 116.508 190.339C116.508 189.626 116.34 188.954 116.067 188.367C117.725 188.241 119.047 186.709 119.047 184.842Z" fill="black"/>
<path d="M66.6964 206.474C86.6082 202.088 120.305 202.13 138.329 207.04C160.402 213.083 204.317 240.15 193.238 258.194C182.894 275.042 146.092 252.781 146.092 252.781V266.251C146.092 268.832 144.015 270.909 141.434 270.909H60.9893C58.4085 270.909 56.3313 268.832 56.3313 266.251V251.354C56.3313 251.354 19.5081 275.63 7.84214 259.432C-6.92911 238.912 51.3796 209.831 66.6964 206.474Z" fill="#968AF3"/>
<path d="M146.093 252.991C145.988 252.991 145.883 252.907 145.883 252.802C144.645 237.695 139.756 221.916 139.714 221.749C139.672 221.644 139.735 221.518 139.861 221.476C139.966 221.434 140.092 221.497 140.134 221.623C140.176 221.791 145.085 237.611 146.323 252.76C146.302 252.886 146.218 252.991 146.093 252.991Z" fill="black"/>
<path d="M56.4579 251.354C56.4369 251.354 56.4369 251.354 56.4579 251.354C56.332 251.354 56.248 251.249 56.248 251.123C57.486 235.974 62.3748 220.133 62.4377 219.986C62.4797 219.881 62.5845 219.818 62.7104 219.839C62.8153 219.881 62.8783 219.986 62.8573 220.112C62.8154 220.28 57.9266 236.058 56.6886 251.165C56.6467 251.27 56.5628 251.354 56.4579 251.354Z" fill="black"/>
<defs>
<clipPath id="clip0_2963_46032">
<rect width="4" height="4" fill="white" transform="translate(161.277 61.5732)"/>
</clipPath>
</defs>
</svg>
