<svg width="200" height="272" viewBox="0 0 200 272" fill="none" xmlns="http://www.w3.org/2000/svg">
<rect width="200" height="272" rx="8" fill="#F8F5FF"/>
<path d="M179.166 26.9201C179.186 27.0235 179.207 27.1061 179.228 27.1888C178.36 27.5815 177.553 28.1189 176.851 28.739C176.789 28.677 176.706 28.615 176.623 28.5737C175.569 27.8502 174.122 28.1189 173.399 29.1938C172.675 30.2479 172.944 31.6948 174.019 32.4182C174.102 32.4802 174.184 32.5216 174.267 32.5629C173.936 33.431 173.75 34.3818 173.688 35.3326C173.585 35.3326 173.502 35.3533 173.399 35.374C172.138 35.622 171.311 36.8208 171.539 38.0817C171.787 39.3425 172.985 40.1693 174.246 39.9419C174.35 39.9213 174.432 39.9006 174.515 39.8799C174.908 40.748 175.445 41.5542 176.065 42.2569C176.003 42.3189 175.941 42.4016 175.9 42.4843C175.176 43.5384 175.445 44.9853 176.52 45.7087C177.574 46.4322 179.021 46.1635 179.744 45.0886C179.806 45.006 179.848 44.9233 179.889 44.8406C180.757 45.1713 181.708 45.3573 182.659 45.4194C182.659 45.5227 182.679 45.6054 182.7 45.7087C182.948 46.9696 184.147 47.7964 185.408 47.569C186.669 47.321 187.495 46.1221 187.268 44.8613C187.247 44.7579 187.227 44.6753 187.206 44.5926C188.074 44.1999 188.88 43.6624 189.583 43.0424C189.645 43.1044 189.728 43.1664 189.81 43.2077C190.865 43.9312 192.311 43.6624 193.035 42.5876C193.758 41.5335 193.49 40.0866 192.415 39.3632C192.332 39.3012 192.249 39.2598 192.167 39.2185C192.497 38.3504 192.684 37.3996 192.746 36.4488C192.849 36.4488 192.932 36.4281 193.035 36.4074C194.296 36.1594 195.123 34.9606 194.895 33.6997C194.647 32.4389 193.448 31.6121 192.187 31.8395C192.084 31.8601 192.001 31.8808 191.919 31.9015C191.526 31.0334 190.989 30.2272 190.369 29.5245C190.431 29.4625 190.493 29.3798 190.534 29.2971C191.257 28.243 190.989 26.7961 189.914 26.0727C188.86 25.3492 187.413 25.6179 186.689 26.6927C186.627 26.7754 186.586 26.8581 186.545 26.9408C185.677 26.6101 184.726 26.424 183.775 26.362C183.775 26.2587 183.754 26.176 183.734 26.0727C183.486 24.8118 182.287 23.985 181.026 24.2124C179.765 24.4604 178.938 25.6593 179.166 26.9201ZM187.475 35.0846C187.909 37.4202 186.379 39.6939 184.044 40.128C181.708 40.562 179.434 39.0325 179 36.6968C178.566 34.3612 180.096 32.0875 182.431 31.6534C184.767 31.1987 187.02 32.7283 187.475 35.0846Z" fill="white"/>
<path d="M95.1983 188.412H171.18C176.12 188.412 180.171 184.361 180.171 179.421L180.191 26.1978C180.191 21.2578 176.14 17.2065 171.2 17.2065H95.2189C90.2789 17.2065 86.2277 21.2578 86.2277 26.1978L86.207 179.4C86.207 184.361 90.2583 188.412 95.1983 188.412Z" fill="white"/>
<path d="M171.179 188.619H95.1979C92.7589 188.619 90.4439 187.668 88.7077 185.912C86.9715 184.175 86 181.86 86 179.421L86.0207 26.1979C86.0207 21.1339 90.1546 17 95.2186 17H171.2C173.639 17 175.954 17.9508 177.69 19.7077C179.426 21.444 180.398 23.7589 180.398 26.1979L180.377 179.421C180.398 184.485 176.264 188.619 171.179 188.619ZM95.2186 17.3927C90.3819 17.3927 86.4341 21.3406 86.4341 26.1773L86.4134 179.401C86.4134 181.736 87.3229 183.948 88.9971 185.602C90.6713 187.276 92.8623 188.185 95.1979 188.185H171.179C176.016 188.185 179.964 184.237 179.964 179.401L179.984 26.1773C179.984 23.8416 179.075 21.63 177.401 19.9764C175.726 18.3022 173.536 17.3927 171.2 17.3927H95.2186Z" fill="black"/>
<path d="M168.762 183.184H97.638C95.7777 183.184 94.0002 182.46 92.6773 181.117C91.3545 179.794 90.6104 178.016 90.6104 176.156L90.631 28.9681C90.631 25.1029 93.7728 21.9404 97.6587 21.9404H168.783C170.643 21.9404 172.42 22.6639 173.743 24.0074C175.066 25.3302 175.81 27.1078 175.81 28.9681L175.79 176.156C175.79 180.021 172.627 183.184 168.762 183.184ZM97.6587 22.3745C94.0208 22.3745 91.0444 25.3302 91.0444 28.9887L91.0237 176.177C91.0237 177.934 91.7058 179.587 92.9667 180.848C94.2275 182.109 95.8811 182.791 97.638 182.791H168.762C172.4 182.791 175.376 179.835 175.376 176.177L175.397 28.9887C175.397 27.2318 174.715 25.5783 173.454 24.3174C172.193 23.0566 170.539 22.3745 168.783 22.3745H97.6587Z" fill="black"/>
<path d="M142.014 27.2103H123.329C123.205 27.2103 123.122 27.1276 123.122 27.0036C123.122 26.8796 123.205 26.7969 123.329 26.7969H142.014C142.138 26.7969 142.221 26.8796 142.221 27.0036C142.221 27.1069 142.138 27.2103 142.014 27.2103Z" fill="black"/>
<path d="M169.464 43.3128L169.443 168.86C169.443 172.725 166.281 175.887 162.415 175.887H104.127C100.262 175.887 97.0996 172.725 97.0996 168.86L97.1203 43.3128C97.1203 39.4476 100.283 36.2852 104.148 36.2852H162.436C166.301 36.2852 169.464 39.4476 169.464 43.3128Z" fill="#E5DFFE"/>
<path d="M169.567 91.5558V83.9908L161.341 74.9995C160.782 74.3794 160.452 73.4286 160.452 72.3745V36.0374L157.207 36.0168V70.4729L153.321 66.215C152.577 65.4089 151.647 64.9541 150.675 64.9541L110.762 64.8508V35.9341H107.517V64.8508L96.8516 64.8301V72.3952L107.517 72.4158V129.443H96.8516V134.218H105.636C106.277 134.218 114.421 134.218 114.421 134.218H144.288C145.508 134.218 146.479 135.582 146.479 137.339V144.904L143.709 147.529C142.697 148.48 141.539 148.996 140.361 148.996H129.571C128.497 148.996 121.014 148.996 121.014 148.996L96.8516 148.955V156.52L110.266 156.541V176.156H115.371V157.946C115.371 157.182 115.826 156.541 116.343 156.541H140.547C141.601 156.541 142.635 156.086 143.523 155.239L146.479 152.448V163.32C146.479 164.767 147.265 165.904 148.277 165.904H157.186V176.198L160.431 176.239V165.904H169.546V161.13H160.431V139.24L169.546 130.601V123.036L160.431 131.675V81.5931L169.567 91.5558ZM128.455 129.443H110.762V72.4365L128.455 72.4778V129.443ZM157.186 161.15H150.696C150.158 161.15 149.724 160.551 149.724 159.765V149.389L157.186 142.32V161.15ZM157.186 131.861C157.186 133.66 156.525 135.375 155.45 136.388L149.724 141.824V134.073C149.724 131.469 148.298 129.422 146.479 129.443H131.7V72.4778L150.22 72.5192C151.46 72.5192 152.639 73.0773 153.61 74.1314L157.186 78.0379V131.861Z" fill="white"/>
<path d="M137.178 41.4517C125.666 41.4517 116.344 50.7943 116.385 62.3072C116.426 82.3774 137.323 103.522 137.323 103.522C137.323 103.522 158.117 82.1913 158.075 62.3072C158.055 50.7736 148.691 41.4517 137.178 41.4517Z" fill="#968AF3"/>
<path d="M148.671 75.0228C154.924 68.7645 154.907 58.6089 148.632 52.3397C142.358 46.0705 132.202 46.0617 125.949 52.3201C119.696 58.5784 119.713 68.734 125.988 75.0032C132.262 81.2724 142.418 81.2812 148.671 75.0228Z" fill="white"/>
<path d="M142.685 56.6831H126.475V70.4809H142.685V56.6831Z" fill="white"/>
<path d="M142.684 70.5441H126.474C126.436 70.5441 126.411 70.5189 126.411 70.4812V56.6834C126.411 56.6457 126.436 56.6206 126.474 56.6206H142.684C142.722 56.6206 142.747 56.6457 142.747 56.6834V70.4812C142.747 70.5189 142.722 70.5441 142.684 70.5441ZM126.537 70.4184H142.622V56.7463H126.537V70.4184Z" fill="black"/>
<path d="M148.259 56.6924H140.863V70.4902H148.259V56.6924Z" fill="white"/>
<path d="M148.258 70.5533H140.863C140.825 70.5533 140.8 70.5282 140.8 70.4905V56.6927C140.8 56.655 140.825 56.6299 140.863 56.6299H148.258C148.296 56.6299 148.321 56.655 148.321 56.6927V70.4905C148.321 70.5282 148.296 70.5533 148.258 70.5533ZM140.925 70.4277H148.195V56.7555H140.925V70.4277Z" fill="black"/>
<path d="M132.731 56.7792L132.725 64.6206H134.798L134.792 56.7729L132.731 56.7792Z" fill="#E5DFFE"/>
<path d="M143.954 56.7729V64.6143H145.544V56.7666L143.954 56.7729Z" fill="#E5DFFE"/>
<path d="M153.445 131.385C148.112 131.385 143.792 135.705 143.813 141.037C143.833 150.339 153.507 160.136 153.507 160.136C153.507 160.136 163.139 150.256 163.118 141.037C163.097 135.705 158.777 131.385 153.445 131.385Z" fill="#968AF3"/>
<path d="M157.846 145.987C160.257 143.571 160.246 139.651 157.822 137.232C155.398 134.813 151.478 134.811 149.067 137.228C146.656 139.644 146.667 143.563 149.092 145.982C151.516 148.401 155.436 148.403 157.846 145.987Z" fill="white"/>
<path d="M111.092 108.999C105.759 108.999 101.439 113.319 101.46 118.652C101.481 127.953 111.154 137.75 111.154 137.75C111.154 137.75 120.786 127.87 120.765 118.652C120.765 113.34 116.425 108.999 111.092 108.999Z" fill="#968AF3"/>
<path d="M115.49 123.612C117.903 121.197 117.894 117.277 115.471 114.857C113.048 112.437 109.128 112.432 106.716 114.847C104.304 117.262 104.313 121.182 106.736 123.602C109.159 126.022 113.078 126.026 115.49 123.612Z" fill="white"/>
<path d="M10.9398 225.238C10.8762 225.472 2.07322 249.059 11.767 260.705C21.4609 272.35 44.5394 264.565 44.5394 264.565L39.5971 230.117L10.9398 225.238Z" fill="white"/>
<path d="M28.736 267.322C21.0573 267.322 15.1604 265.116 11.618 260.831C2.62417 250.013 9.28471 229.289 10.7271 225.259C10.7483 225.216 10.7484 225.174 10.7484 225.174C10.7908 225.068 10.8756 225.004 10.9816 225.026L39.6389 229.904C39.7238 229.925 39.8086 229.989 39.8086 230.074L44.7509 264.522C44.7721 264.628 44.7085 264.713 44.6025 264.755C44.5388 264.777 38.7268 266.728 31.8117 267.216C30.7511 267.28 29.7329 267.322 28.736 267.322ZM11.0877 225.471C10.4938 227.168 8.62715 232.853 7.8211 239.428C6.67566 248.783 8.07562 255.889 11.9362 260.555C16.8785 266.516 25.4481 267.216 31.7693 266.771C37.9844 266.325 43.3086 264.713 44.3055 264.395L39.4268 230.286L11.0877 225.471Z" fill="black"/>
<path d="M46.4484 234.423L8.07617 229.608C8.07617 229.608 12.7004 217.262 17.1973 206.232C20.9518 197.005 29.9244 190.981 39.8727 191.002C52.2393 191.023 69.9936 191.469 86.751 193.378C97.7387 194.629 107.114 201.926 110.996 212.278C112.269 215.671 113.478 219.574 114.411 223.965L75.6996 236.926L46.4484 234.423Z" fill="#968AF3"/>
<path d="M96.5918 259.6C96.5918 259.6 108.28 261.213 113.307 256.355C118.334 251.498 123.637 220.974 123.637 220.974H105.119L96.5918 259.6Z" fill="white"/>
<path d="M101.068 260.089C98.5859 260.089 96.7617 259.834 96.5708 259.813C96.5071 259.813 96.4647 259.77 96.4223 259.728C96.3799 259.685 96.3799 259.622 96.3799 259.558L104.907 220.931C104.928 220.825 105.013 220.762 105.119 220.762H123.637C123.701 220.762 123.764 220.783 123.807 220.847C123.849 220.889 123.87 220.953 123.849 221.016C123.637 222.268 118.461 251.646 113.455 256.504C110.38 259.495 104.928 260.089 101.068 260.089ZM96.8465 259.431C98.5011 259.622 108.64 260.576 113.158 256.207C117.825 251.667 122.874 224.113 123.383 221.186H105.289L96.8465 259.431Z" fill="black"/>
<path d="M103.148 204.853H35.1211V262.019H103.148V204.853Z" fill="white"/>
<path d="M103.126 262.232H35.0998C34.9725 262.232 34.8877 262.147 34.8877 262.019V232.959C34.8877 232.832 34.9725 232.747 35.0998 232.747C35.2271 232.747 35.3119 232.832 35.3119 232.959V261.807H102.914V235.78C102.914 235.653 102.999 235.568 103.126 235.568C103.254 235.568 103.338 235.653 103.338 235.78V262.041C103.338 262.147 103.254 262.232 103.126 262.232Z" fill="black"/>
<path d="M84.9895 255.952C84.8622 255.952 84.7773 255.868 84.7773 255.74V206.932C84.7773 206.805 84.8622 206.72 84.9895 206.72C85.1167 206.72 85.2016 206.805 85.2016 206.932V255.74C85.2016 255.846 85.1167 255.952 84.9895 255.952Z" fill="black"/>
<path d="M62.5689 222.501H40.1691C40.0419 222.501 39.957 222.416 39.957 222.289V210.58C39.957 210.453 40.0419 210.368 40.1691 210.368H62.5689C62.6961 210.368 62.781 210.453 62.781 210.58V222.289C62.781 222.395 62.6961 222.501 62.5689 222.501ZM40.4024 222.077H62.378V210.792H40.4024V222.077Z" fill="black"/>
<path d="M43.3098 220.825C43.1825 220.825 43.0977 220.74 43.0977 220.613V212.255C43.0977 212.128 43.1825 212.043 43.3098 212.043C43.437 212.043 43.5219 212.128 43.5219 212.255V220.613C43.5219 220.719 43.437 220.825 43.3098 220.825Z" fill="black"/>
<path d="M46.5334 220.825C46.4061 220.825 46.3213 220.74 46.3213 220.613V212.255C46.3213 212.128 46.4061 212.043 46.5334 212.043C46.6607 212.043 46.7455 212.128 46.7455 212.255V220.613C46.7455 220.719 46.6607 220.825 46.5334 220.825Z" fill="black"/>
<path d="M49.7805 220.825C49.6532 220.825 49.5684 220.74 49.5684 220.613V212.255C49.5684 212.128 49.6532 212.043 49.7805 212.043C49.9077 212.043 49.9926 212.128 49.9926 212.255V220.613C49.9926 220.719 49.8865 220.825 49.7805 220.825Z" fill="black"/>
<path d="M53.0041 220.825C52.8768 220.825 52.792 220.74 52.792 220.613V212.255C52.792 212.128 52.8768 212.043 53.0041 212.043C53.1314 212.043 53.2162 212.128 53.2162 212.255V220.613C53.2162 220.719 53.1102 220.825 53.0041 220.825Z" fill="black"/>
<path d="M56.2277 220.825C56.1005 220.825 56.0156 220.74 56.0156 220.613V212.255C56.0156 212.128 56.1005 212.043 56.2277 212.043C56.355 212.043 56.4399 212.128 56.4399 212.255V220.613C56.4399 220.719 56.355 220.825 56.2277 220.825Z" fill="black"/>
<path d="M59.4514 220.825C59.3241 220.825 59.2393 220.74 59.2393 220.613V212.255C59.2393 212.128 59.3241 212.043 59.4514 212.043C59.5786 212.043 59.6635 212.128 59.6635 212.255V220.613C59.6635 220.719 59.5786 220.825 59.4514 220.825Z" fill="black"/>
<path d="M148.795 269.147H113.159L94.4082 220.975H130.044L148.795 269.147Z" fill="white"/>
<path d="M148.795 269.358H113.159C113.074 269.358 112.99 269.295 112.968 269.231L94.2171 221.059C94.1959 220.995 94.1958 220.91 94.2383 220.868C94.2807 220.804 94.3443 220.783 94.408 220.783H130.044C130.129 220.783 130.214 220.847 130.235 220.91L148.986 269.083C149.007 269.146 149.007 269.231 148.965 269.274C148.922 269.316 148.859 269.358 148.795 269.358ZM113.308 268.934H148.477L129.895 221.186H94.7261L113.308 268.934Z" fill="black"/>
<path d="M126.16 232.196H108.512L107.133 228.675H124.781L126.16 232.196Z" fill="#E5DFFE"/>
<path d="M135.813 248.424H110.783L105.946 235.781H130.976L135.813 248.424Z" fill="#E5DFFE"/>
<path d="M105.462 220.974C107.922 219.235 110.404 217.474 113.247 216.477C116.089 215.48 119.356 215.31 122.007 216.732C123.365 216.159 125.062 216.52 126.08 217.58C128.922 216.965 132.104 218.662 133.165 221.398C134.225 224.135 133.059 227.528 130.534 229.013C130.11 229.268 129.622 229.48 129.134 229.48C128.625 229.48 128.116 229.247 127.883 228.801C127.119 229.374 125.995 229.395 125.231 228.822C124.871 229.141 124.298 229.141 123.853 228.95C123.407 228.759 123.068 228.377 122.728 228.016C120.968 226.022 119.462 223.413 118.316 220.995H105.462V220.974Z" fill="white"/>
<path d="M129.113 229.671C128.583 229.671 128.095 229.438 127.798 229.077C127.013 229.544 125.995 229.544 125.21 229.077C124.764 229.374 124.149 229.332 123.725 229.141C123.237 228.929 122.877 228.526 122.537 228.144C121.031 226.426 119.546 224.092 118.146 221.208H105.44C105.356 221.208 105.271 221.144 105.228 221.059C105.207 220.974 105.228 220.868 105.313 220.826C107.753 219.108 110.277 217.305 113.162 216.286C116.343 215.162 119.568 215.247 122.007 216.498C123.407 215.968 125.061 216.308 126.122 217.347C129.028 216.774 132.252 218.535 133.334 221.314C134.437 224.114 133.207 227.656 130.619 229.183C130.067 229.501 129.58 229.671 129.113 229.671ZM127.883 228.547C127.904 228.547 127.925 228.547 127.925 228.547C127.989 228.568 128.031 228.61 128.074 228.653C128.264 229.035 128.752 229.226 129.134 229.226C129.516 229.226 129.94 229.077 130.428 228.801C132.846 227.38 133.992 224.071 132.973 221.462C131.955 218.832 128.88 217.198 126.122 217.792C126.058 217.814 125.974 217.792 125.931 217.729C124.977 216.732 123.365 216.392 122.092 216.923C122.028 216.944 121.965 216.944 121.901 216.923C119.546 215.671 116.428 215.586 113.31 216.689C110.701 217.623 108.368 219.192 106.119 220.783H118.295C118.38 220.783 118.443 220.826 118.486 220.911C119.886 223.817 121.371 226.171 122.877 227.868C123.195 228.229 123.513 228.568 123.916 228.759C124.277 228.929 124.765 228.95 125.083 228.674C125.146 228.61 125.274 228.61 125.337 228.653C126.037 229.141 127.055 229.141 127.755 228.632C127.777 228.568 127.819 228.547 127.883 228.547Z" fill="black"/>
<path d="M125.4 228.144H125.379C125.273 228.123 125.188 228.017 125.209 227.911C125.803 223.711 124.891 220.211 122.473 217.517C122.388 217.432 122.409 217.305 122.494 217.22C122.579 217.135 122.706 217.156 122.791 217.241C125.294 220.041 126.249 223.647 125.634 227.974C125.591 228.059 125.506 228.144 125.4 228.144Z" fill="black"/>
<path d="M128.243 228.145C128.221 228.145 128.2 228.145 128.179 228.145C128.073 228.102 128.009 227.996 128.031 227.89C128.964 224.623 128.391 220.975 126.482 218.133C126.418 218.027 126.44 217.899 126.546 217.836C126.652 217.772 126.779 217.793 126.843 217.899C128.815 220.826 129.409 224.602 128.434 227.996C128.412 228.081 128.328 228.145 128.243 228.145Z" fill="black"/>
<path d="M131.51 227.636C131.489 227.636 131.489 227.636 131.467 227.636C131.361 227.614 131.276 227.508 131.298 227.381C131.764 224.984 131.998 221.654 130.47 219.278C130.407 219.172 130.428 219.045 130.534 218.981C130.64 218.917 130.767 218.939 130.831 219.045C132.422 221.527 132.189 224.984 131.722 227.466C131.701 227.572 131.616 227.636 131.51 227.636Z" fill="black"/>
<path d="M24.6849 245.622C24.6849 245.622 78.2024 243.31 79.7509 244.965C81.2994 246.619 80.5782 248.274 71.9238 249.843C71.9238 249.843 75.2116 258.646 89.9538 262.019H95.8295C95.8295 262.019 94.3023 266.707 86.4751 267.11C79.7934 267.449 40.3817 268.552 28.9909 268.87C25.0243 268.977 21.0789 268.064 17.6426 266.071C13.2305 263.546 9.05178 259.389 7.60938 250.628L24.6849 245.622Z" fill="white"/>
<path d="M28.3329 269.104C24.4724 269.104 20.7391 268.128 17.5149 266.282C13.9301 264.225 8.9665 260.364 7.39683 250.692C7.37561 250.586 7.46047 250.458 7.56653 250.458C7.67259 250.437 7.79983 250.522 7.79983 250.628C9.3483 260.131 14.2058 263.907 17.727 265.922C21.0785 267.831 24.9602 268.807 28.9693 268.679C40.7843 268.34 79.8141 267.258 86.4535 266.919C94.0261 266.537 95.617 262.019 95.617 261.976C95.6594 261.87 95.7655 261.807 95.8927 261.849C95.9988 261.892 96.0625 261.998 96.02 262.125C95.9564 262.316 94.3443 266.961 86.4747 267.364C79.8142 267.704 40.7843 268.807 28.9693 269.125C28.7784 269.104 28.5451 269.104 28.3329 269.104Z" fill="black"/>
<path d="M95.8287 262.232H89.953C89.9318 262.232 89.9318 262.232 89.9106 262.232C82.2531 260.471 77.7138 257.226 75.2744 254.829C72.6017 252.198 71.7745 250.014 71.732 249.929C71.7108 249.865 71.7108 249.801 71.7532 249.759C71.7744 249.695 71.8381 249.674 71.9017 249.653C76.9925 248.72 79.7713 247.659 80.1531 246.535C80.2804 246.132 80.1107 245.665 79.6016 245.114C79.3046 244.817 75.9956 244.223 51.6019 244.88C38.196 245.241 24.8326 245.814 24.7053 245.835C24.5992 245.835 24.4932 245.75 24.4932 245.623C24.4932 245.495 24.578 245.411 24.7053 245.411C24.8326 245.411 38.2385 244.838 51.6656 244.456C78.9016 243.714 79.6865 244.541 79.941 244.817C80.5562 245.474 80.7683 246.089 80.5774 246.662C80.1531 247.977 77.5017 249.038 72.2623 250.013C72.9199 251.435 76.9289 258.816 90.0167 261.829H95.8711C95.9984 261.829 96.0832 261.913 96.0832 262.041C96.0408 262.147 95.956 262.232 95.8287 262.232Z" fill="black"/>
<path d="M57.3714 170.639L47.1897 178.211C45.62 179.378 46.0018 181.86 47.8685 182.432C48.3776 182.581 48.9715 182.708 49.6503 182.751C49.4381 184.363 50.6897 185.826 52.323 185.826C54.7835 185.848 58.0077 185.869 59.0895 185.784L64.244 173.205L57.3714 170.639Z" fill="black"/>
<path d="M57.8591 175.772L56.0137 191.914C56.0137 191.914 58.8349 196.135 65.7924 196.284C72.7499 196.432 70.5014 192.275 70.5014 192.275L70.968 182.284C70.968 182.305 63.9469 174.796 57.8591 175.772Z" fill="white"/>
<path d="M56.0139 192.126H55.9926C55.8866 192.105 55.8018 191.999 55.8018 191.893L57.6472 175.729C57.6684 175.644 57.732 175.559 57.8169 175.538C63.9471 174.562 70.841 181.838 71.1167 182.135C71.2016 182.22 71.2016 182.347 71.1167 182.432C71.0319 182.517 70.9046 182.517 70.8198 182.432C70.7561 182.368 63.9259 175.156 58.0502 175.941L56.226 191.935C56.2048 192.062 56.1199 192.126 56.0139 192.126Z" fill="black"/>
<path d="M70.5012 192.487C70.3739 192.487 70.2891 192.381 70.2891 192.275L70.7557 182.284C70.7557 182.157 70.8618 182.072 70.9678 182.072C71.0951 182.072 71.18 182.178 71.18 182.284L70.7133 192.275C70.7133 192.402 70.6285 192.487 70.5012 192.487Z" fill="black"/>
<path d="M75.0006 167.84C75.0006 167.84 79.943 180.652 72.2643 184.767C64.5644 188.882 58.2433 178.658 57.8614 177.618C57.4796 176.6 56.5039 172.061 56.5039 172.061L70.9067 166.906L73.8764 167.33L75.0006 167.84Z" fill="white"/>
<path d="M68.5729 185.954C67.6183 185.954 66.6638 185.763 65.6881 185.403C61.0003 183.642 57.8821 178.254 57.67 177.703C57.2882 176.684 56.3336 172.294 56.2912 172.103C56.27 171.997 56.3336 171.891 56.4185 171.848L70.8214 166.694C70.8638 166.672 70.885 166.672 70.9274 166.694L73.8971 167.118C73.9183 167.118 73.9395 167.118 73.9607 167.139L75.1061 167.669C75.1486 167.691 75.191 167.733 75.2122 167.775C75.2334 167.818 76.4637 171.042 76.7394 174.754C77.1 179.697 75.594 183.239 72.3698 184.957C71.1183 185.615 69.8456 185.954 68.5729 185.954ZM56.7366 172.188C56.9275 173.036 57.7336 176.663 58.0518 177.533C58.3912 178.424 61.5942 183.387 65.8366 184.978C68.0002 185.784 70.1214 185.657 72.1577 184.554C79.2849 180.736 75.2334 169.048 74.8304 167.966L73.791 167.5L70.9062 167.097L56.7366 172.188Z" fill="black"/>
<path d="M74.6588 165.993C74.6588 165.993 78.8376 165.23 78.5194 168.115C78.2012 170.999 72.8346 170.469 70.9043 167.924L74.6588 165.993Z" fill="black"/>
<path d="M56.5023 173.227L81.0657 164.869C81.5111 164.721 81.7445 164.233 81.596 163.787C81.4475 163.342 80.9596 163.108 80.5142 163.278L54.9326 172.463L56.5023 173.227Z" fill="#968AF3"/>
<path d="M74.9997 165.993L72.7725 160.648C70.7786 155.875 65.2635 153.69 60.5332 155.811C59.5575 156.236 58.5605 156.787 57.5423 157.445C53.8939 159.821 52.3242 164.36 53.6394 168.517L54.8909 172.463L74.9997 165.993Z" fill="#968AF3"/>
<path d="M61.1051 169.938C61.0415 169.938 60.9567 169.896 60.9142 169.832C58.687 166.142 56.6082 161.051 59.2809 157.636C59.3233 157.593 59.3446 157.551 59.3658 157.529C59.387 157.466 59.4294 157.402 59.493 157.381C59.5991 157.339 59.7264 157.381 59.7688 157.487C59.8324 157.636 59.7476 157.72 59.6203 157.89C57.0961 161.093 59.1324 166.014 61.2748 169.599C61.3385 169.705 61.296 169.832 61.2112 169.896C61.19 169.917 61.1476 169.938 61.1051 169.938Z" fill="black"/>
<path d="M57.86 174.138C57.86 174.138 56.863 170.426 53.8934 172.929C50.9449 175.432 55.8449 180.905 59.366 178.72L57.86 174.138Z" fill="white"/>
<path d="M57.6041 179.421C56.0557 179.421 54.5496 178.466 53.6375 177.193C52.4497 175.56 52.4921 173.821 53.7648 172.739C54.6981 171.954 55.5466 171.657 56.3102 171.912C57.5829 172.315 58.0496 173.99 58.0708 174.075C58.092 174.181 58.0284 174.309 57.9223 174.33C57.8163 174.351 57.689 174.287 57.6678 174.181C57.6678 174.16 57.2435 172.633 56.2041 172.315C55.589 172.124 54.8678 172.378 54.0618 173.078C52.7466 174.181 53.1709 175.815 53.9981 176.96C55.1648 178.572 57.4132 179.675 59.2799 178.53C59.3859 178.466 59.5132 178.509 59.5769 178.593C59.6405 178.699 59.5981 178.827 59.5132 178.89C58.8769 179.272 58.2405 179.421 57.6041 179.421Z" fill="black"/>
<path d="M58.0509 177.384C57.9661 177.384 57.8812 177.341 57.86 177.257C57.4782 176.323 56.3964 175.729 55.3995 175.92C55.2934 175.941 55.1661 175.857 55.1449 175.751C55.1237 175.644 55.2085 175.517 55.3146 175.496C56.4176 175.305 57.6055 175.899 58.1358 176.896C58.157 176.917 58.1782 176.938 58.1994 176.981L58.2418 177.108C58.2843 177.214 58.2206 177.341 58.1145 177.384C58.1145 177.384 58.0934 177.384 58.0509 177.384Z" fill="black"/>
</svg>
